<svg width="20" height="24" viewBox="0 0 20 24" fill="none" xmlns="http://www.w3.org/2000/svg">
<path d="M1.47466 22.1236C1.59368 23.1933 2.49493 24.0001 3.57123 24.0001H12.3039C13.3802 24.0001 14.2817 23.1933 14.4005 22.1229L14.5036 21.1876H16.8435C17.8788 21.1876 18.7538 20.4462 18.9243 19.4239L19.8616 13.7531C20.0773 12.4594 19.0768 11.25 17.781 11.25H15.5987L15.6678 10.6238C15.7135 10.2082 15.3878 9.84378 14.9688 9.84378H14.1447C14.2229 9.62369 14.2657 9.38711 14.2657 9.14065C14.2657 8.40146 13.8832 7.75015 13.3061 7.37332L16.9376 2.53127C17.1705 2.22053 17.1075 1.7798 16.797 1.54689C16.4864 1.31379 16.0455 1.37678 15.8126 1.68751L12.7749 5.73763C12.5702 5.0367 12.0108 4.48537 11.3049 4.29274C11.4007 4.05214 11.4532 3.78993 11.4532 3.51564V0.703136C11.4532 0.418773 11.2818 0.162425 11.0191 0.0534765C10.7563 -0.0552884 10.4538 0.00495347 10.2528 0.206004C9.47878 0.979992 8.44972 1.40626 7.35511 1.40626H6.53132C5.36823 1.40626 4.42194 2.35255 4.42194 3.51564C4.42194 3.78993 4.47449 4.05214 4.57025 4.29274C3.67541 4.53701 3.01568 5.35695 3.01568 6.32815C3.01568 6.60244 3.06823 6.86465 3.164 7.10525C2.26916 7.34951 1.60943 8.16946 1.60943 9.14065C1.60943 9.38711 1.65227 9.62369 1.73028 9.84378H0.906301C0.706349 9.84378 0.515918 9.92892 0.382617 10.0778C0.249133 10.2267 0.185412 10.4251 0.207385 10.624C0.235583 10.882 1.47411 22.1185 1.47466 22.1236ZM13.3987 18.375H10.3738C10.1229 18.375 9.89095 18.5087 9.76516 18.7261C9.38869 19.377 8.68831 19.7813 7.93757 19.7813C7.18684 19.7813 6.48646 19.377 6.10999 18.7261C5.9842 18.5087 5.75239 18.375 5.50135 18.375H2.47644L2.32134 16.9688H5.50135C5.7522 16.9688 5.9842 16.8349 6.10981 16.6178C6.48646 15.9668 7.18684 15.5625 7.93757 15.5625C8.68831 15.5625 9.38869 15.9668 9.76516 16.6178C9.89077 16.8349 10.1228 16.9688 10.3738 16.9688H13.5536L13.3987 18.375ZM12.3039 22.5938H3.57123C3.21234 22.5938 2.91204 22.3248 2.87249 21.9689L2.63134 19.7813H5.12507C5.78425 20.6576 6.82777 21.1876 7.93757 21.1876C9.04738 21.1876 10.0909 20.6576 10.7501 19.7813H13.2436L13.0027 21.9683C12.9631 22.3248 12.6626 22.5938 12.3039 22.5938ZM17.781 12.6563C18.208 12.6563 18.5473 13.0851 18.4744 13.5227L17.5369 19.1937C17.4803 19.5341 17.1886 19.7813 16.8435 19.7813H14.6585C15.5898 11.3363 14.6621 19.7493 15.4436 12.6563H17.781ZM3.01568 9.14065C3.01568 8.75302 3.33117 8.43753 3.71881 8.43753H6.53132C6.91969 8.43753 7.23445 8.12277 7.23445 7.7344C7.23445 7.34603 6.91969 7.03127 6.53132 7.03127H5.12507C4.73743 7.03127 4.42194 6.71578 4.42194 6.32815C4.42194 5.94051 4.73743 5.62502 5.12507 5.62502H6.53132C6.91969 5.62502 7.23445 5.31026 7.23445 4.9219C7.23445 4.53353 6.91969 4.21877 6.53132 4.21877C6.14368 4.21877 5.82819 3.90328 5.82819 3.51564C5.82819 3.12801 6.14368 2.81252 6.53132 2.81252H7.35511C8.31312 2.81252 9.23397 2.56935 10.047 2.11232V3.51564C10.047 3.90328 9.73146 4.21877 9.34383 4.21877C8.95546 4.21877 8.6407 4.53353 8.6407 4.9219C8.6407 5.31026 8.95546 5.62502 9.34383 5.62502H10.7501C11.1377 5.62502 11.4532 5.94051 11.4532 6.32815C11.4532 6.71578 11.1377 7.03127 10.7501 7.03127H9.34383C8.95546 7.03127 8.6407 7.34603 8.6407 7.7344C8.6407 8.12277 8.95546 8.43753 9.34383 8.43753H12.1545H12.1558H12.1565C12.5442 8.43753 12.8595 8.75302 12.8595 9.14065C12.8595 9.52829 12.544 9.84378 12.1563 9.84378H3.71881C3.33117 9.84378 3.01568 9.52829 3.01568 9.14065ZM14.1839 11.25C14.124 11.7939 13.7686 15.0193 13.7087 15.5625H10.7501C10.0909 14.6862 9.04738 14.1563 7.93757 14.1563C6.82777 14.1563 5.78425 14.6862 5.12507 15.5625H2.16644L1.69109 11.25H14.1839Z" fill="#14AD99"/>
</svg>
