<svg width="80" height="68" viewBox="0 0 80 68" fill="#F3F4F0" xmlns="http://www.w3.org/2000/svg">
<path fill-rule="evenodd" clip-rule="evenodd" d="M49.8877 42.935H30.1118V38.7246H49.8877V42.935ZM37.7226 21.8542H42.2771C42.56 20.6831 44.2747 15.1424 47.2894 14.5137C47.9788 13.6153 48.2795 13.1879 48.1667 12.4827C43.3367 9.42917 36.1759 9.3121 31.8345 12.4827C31.7223 13.1875 32.022 13.6153 32.7122 14.5137C35.7258 15.1424 37.4398 20.6831 37.7226 21.8542ZM49.6931 25.0281C48.1372 23.7126 46.1919 23.0781 43.9108 22.5481C43.6101 22.4782 42.4531 22.2897 41.7647 22.2665C41.2761 22.251 40.669 22.2413 40.0006 22.251C39.3325 22.2413 38.7251 22.251 38.2361 22.2665C37.5484 22.2897 36.3921 22.4785 36.0907 22.5481C33.8071 23.0781 31.8646 23.7126 30.3066 25.0281C30.6631 25.9452 31.3526 26.7031 31.5758 27.8287C31.7574 28.7407 31.8348 29.651 31.8667 30.565H31.8419V38.2584H48.1593V30.565H48.1355C48.1674 29.651 48.2438 28.7407 48.424 27.8287C48.6497 26.7031 49.3377 25.9452 49.6931 25.0281ZM39.2077 57.1465L39.3566 57.1455C39.5722 57.1431 39.7857 57.1417 39.9998 57.1417C40.2161 57.1417 40.4288 57.1431 40.6451 57.1455L40.7937 57.1465C43.5336 57.1701 45.9139 57.2806 48.1592 57.5009V43.4365H31.8418V57.5009C34.0871 57.2806 36.4674 57.1704 39.2077 57.1465ZM24.8082 65.0106L23.9043 62.1787C20.4998 63.8146 16.1143 63.0193 7.27767 62.6778L9.7603 65.2194L6.71826 67.6159C23.0045 68.4136 23.1395 67.9013 26.7343 66.7043C27.4665 66.458 28.1279 66.1958 28.7311 65.9208L24.8082 65.0106ZM28.1812 64.1514L28.5482 65.364L25.3281 64.6726C25.9629 64.5365 27.5114 64.274 28.1812 64.1514ZM55.1929 65.0106L56.0968 62.1787C59.501 63.8146 63.8851 63.0193 72.7238 62.6778L70.2401 65.2194L73.2818 67.6159C56.9952 68.4136 56.8613 67.9013 53.2676 66.7043C52.5336 66.458 51.8722 66.1958 51.27 65.9208C51.27 65.9208 55.1925 65.0106 55.1929 65.0106ZM51.8193 64.1514L51.4526 65.364L54.6734 64.6726C54.0387 64.5365 52.4901 64.274 51.8193 64.1514ZM40.7887 57.6094C40.5269 57.6077 40.2633 57.6035 40.0004 57.6035C39.7379 57.6035 39.4743 57.6077 39.2121 57.6094C33.0173 57.6634 28.7148 58.1567 23.6689 59.3554L25.0818 64.2762C29.6223 63.2125 33.5504 62.7927 39.2121 62.7407C39.4729 62.7376 39.7379 62.7352 40.0004 62.7348C40.2633 62.7352 40.5276 62.7376 40.7887 62.7407C46.4508 62.7927 50.3782 63.2125 54.9197 64.2762L56.3316 59.3554C51.2871 58.1567 46.9843 57.6634 40.7887 57.6094ZM29.3962 26.1992C29.3625 24.8183 30.5248 24.9063 30.8287 24.8658C30.9563 24.7521 32.4456 23.7633 32.6608 23.6372C32.6731 23.604 32.543 22.7751 31.7372 22.5583C30.8757 22.3276 29.3538 23.0567 29.2728 23.082C27.63 23.5839 27.2735 25.8245 27.2634 25.9883C27.1442 27.8919 25.9826 29.544 23.324 30.0878C23.1659 29.7557 22.9718 29.4079 22.7257 29.0432C21.7226 27.5542 19.7979 27.5937 19.1351 26.3579C18.6886 25.5263 18.738 24.6946 19.8975 24.2506C20.9325 23.8544 21.9676 23.6029 21.9676 23.6029C21.9676 23.6029 22.4632 23.1572 22.9914 22.4416C23.2728 22.0602 23.1894 21.8611 23.0555 21.585C22.9209 21.3083 21.9006 21.3717 21.0152 20.655C20.5999 20.3194 20.0258 19.4933 18.7184 19.0265C18.412 18.917 18.3917 18.7085 18.4926 18.4695C18.8379 17.6545 18.8495 16.0162 18.8495 16.0162C18.8495 16.0162 17.5165 16.7675 17.1446 17.2205C16.7731 17.6722 16.4299 18.5294 16.4299 18.5294C16.4299 18.5294 16.2823 18.0369 16.1537 17.42C16.0251 16.8035 16.125 15.6328 16.125 15.6328C16.125 15.6328 14.2747 16.8998 14.3023 19.0244C14.3104 19.6461 12.4093 21.1552 12.159 23.4384C12.0451 24.4754 12.0559 25.1757 12.6238 26.3326C13.193 27.4898 15.1881 30.6867 13.5982 34.3006C12.5856 36.6008 10.7976 37.5536 9.39245 39.2851C8.19547 40.7589 7.17445 41.9853 7.68023 45.4427C6.2428 45.0104 4.39634 42.2496 6.64378 38.529C9.07209 34.5098 10.8835 31.7961 8.98972 27.3499C7.09664 22.9036 4.71845 21.8216 4.71845 21.8216C4.71845 21.8216 5.10857 25.6839 3.471 29.0287C2.0129 32.007 -0.428729 35.6275 0.064784 39.2716C0.440877 42.0508 1.15906 43.6056 3.38653 45.2422C4.78645 46.2705 7.14255 46.7388 7.96484 46.6588C8.14115 47.1974 8.61293 47.6757 8.93469 47.9472C10.5603 49.3226 9.72333 50.9807 9.67496 51.0766C8.57612 53.2715 7.12993 52.7596 6.48711 53.781C5.78504 55.393 6.8632 56.3912 7.3157 57.6595C8.05702 59.7391 8.39211 62.1719 10.6013 62.3867C11.2635 62.4518 11.9858 62.5896 12.792 62.5529C13.587 62.5827 14.2428 62.4019 14.8821 61.9225C15.7436 60.9915 14.7058 60.242 13.8765 59.8939C13.1951 59.6078 12.7794 60.0813 12.2964 59.7197C10.519 58.3876 9.78432 57.6176 9.98165 56.2003C10.1226 55.1872 11.173 55.2586 12.3889 54.3937C12.8418 54.0726 15.4979 52.7059 15.9452 49.2935C16.044 49.3119 19.1726 49.5214 17.3808 52.0942C16.8081 52.9172 17.6374 53.8004 17.9571 53.9985C18.1155 54.0983 18.9437 54.6739 20.0678 57.3523C20.6199 58.6671 23.1719 58.7966 24.2479 58.6481C26.5427 58.3349 27.3243 58.0412 27.3923 57.2668C27.4379 56.75 26.5571 56.0535 26.2118 55.8983C25.7663 55.6991 25.14 55.9402 24.1803 55.8595C23.5157 55.8041 21.2368 54.3106 21.0135 52.6193C20.8154 51.1279 22.2297 50.6132 22.527 48.2801C22.7348 46.6536 21.9364 43.2925 16.6388 43.3015C16.363 43.3018 16.7615 42.7865 16.9304 42.5683C17.6591 41.6272 20.2515 40.8056 21.5953 38.4071C22.2809 37.183 22.6693 37.936 22.6693 37.936C22.6693 37.936 23.4509 38.5702 24.2097 38.077C26.2059 36.7823 26.0127 35.6428 27.427 35.2756C28.8424 34.9095 29.2504 35.3352 30.2304 34.0187C31.2094 32.7032 31.8613 32.3219 30.2675 31.8328C29.9651 31.7389 29.3695 32.229 27.4242 32.8708C25.4793 33.513 25.3685 34.187 24.2623 34.3003C23.9101 34.3363 23.8684 33.7066 23.8841 33.3353C25.9311 33.2279 29.5967 31.121 29.3962 26.1992ZM50.6033 26.1992C50.638 24.8183 49.475 24.9063 49.1707 24.8658C49.0442 24.7521 47.5556 23.7633 47.3411 23.6372C47.3288 23.604 47.4564 22.7751 48.2633 22.5583C49.1255 22.3276 50.6471 23.0567 50.7284 23.082C52.3712 23.5839 52.7263 25.8245 52.7368 25.9883C52.8581 27.8919 54.0168 29.544 56.6765 30.0878C56.8342 29.7557 57.0284 29.4079 57.2744 29.0432C58.279 27.5542 60.2026 27.5937 60.8661 26.3579C61.3123 25.5263 61.2625 24.6946 60.1041 24.2506C59.0683 23.8544 58.0336 23.6029 58.0336 23.6029C58.0336 23.6029 57.538 23.1572 57.0098 22.4416C56.7273 22.0602 56.8114 21.8611 56.945 21.585C57.0789 21.3083 58.1002 21.3717 58.9856 20.655C59.4017 20.3194 59.9747 19.4933 61.2814 19.0265C61.5892 18.917 61.6095 18.7085 61.5086 18.4695C61.164 17.6545 61.1524 16.0162 61.1524 16.0162C61.1524 16.0162 62.4837 16.7675 62.8552 17.2205C63.2274 17.6722 63.5702 18.5294 63.5702 18.5294C63.5702 18.5294 63.7178 18.0369 63.8471 17.42C63.9747 16.8035 63.8759 15.6328 63.8759 15.6328C63.8759 15.6328 65.7272 16.8998 65.6999 19.0244C65.6911 19.6461 67.5916 21.1552 67.8422 23.4384C67.9551 24.4754 67.9456 25.1757 67.3771 26.3326C66.8061 27.4898 64.8135 30.6867 66.403 34.3006C67.4142 36.6008 69.2022 37.5536 70.6087 39.2851C71.8061 40.7589 72.826 41.9853 72.3189 45.4427C73.758 45.0104 75.6038 42.2496 73.3567 38.529C70.9288 34.5098 69.1177 31.7961 71.0118 27.3499C72.9039 22.9036 75.2824 21.8216 75.2824 21.8216C75.2824 21.8216 74.8926 25.6839 76.5312 29.0287C77.9883 32.007 80.4296 35.6275 79.935 39.2716C79.5603 42.0508 78.8411 43.6056 76.615 45.2422C75.213 46.2705 72.8579 46.7388 72.0371 46.6588C71.8594 47.1974 71.3869 47.6757 71.0669 47.9472C69.4409 49.3226 70.2779 50.9807 70.3259 51.0766C71.4247 53.2715 72.8706 52.7596 73.5137 53.781C74.2169 55.393 73.1387 56.3912 72.6844 57.6595C71.9435 59.7391 71.6091 62.1719 69.397 62.3867C68.7367 62.4518 68.0161 62.5896 67.2081 62.5529C66.4142 62.5827 65.7584 62.4019 65.1202 61.9225C64.2576 60.9915 65.294 60.242 66.1244 59.8939C66.8058 59.6078 67.2204 60.0813 67.7038 59.7197C69.4805 58.3876 70.2176 57.6176 70.0195 56.2003C69.8779 55.1872 68.8282 55.2586 67.6112 54.3937C67.1608 54.0726 64.5029 52.7059 64.0553 49.2935C63.9579 49.3119 60.8279 49.5214 62.6183 52.0942C63.1934 52.9172 62.3638 53.8004 62.0434 53.9985C61.8854 54.0983 61.0568 54.6739 59.9327 57.3523C59.381 58.6671 56.8282 58.7966 55.7518 58.6481C53.4585 58.3349 52.6769 58.0412 52.6092 57.2668C52.5633 56.75 53.4424 56.0535 53.7901 55.8983C54.2359 55.6991 54.8616 55.9402 55.8191 55.8595C56.4848 55.8041 58.7634 54.3106 58.9881 52.6193C59.1861 51.1279 57.7701 50.6132 57.4739 48.2801C57.2678 46.6536 58.0655 43.2925 63.3613 43.3015C63.6368 43.3018 63.2394 42.7865 63.0704 42.5683C62.3403 41.6272 59.7494 40.8056 58.4055 38.4071C57.7206 37.183 57.3319 37.936 57.3319 37.936C57.3319 37.936 56.5513 38.5702 55.7908 38.077C53.7953 36.7823 53.9881 35.6428 52.5735 35.2756C51.1592 34.9095 50.7501 35.3352 49.7715 34.0187C48.7911 32.7032 48.141 32.3219 49.733 31.8328C50.0365 31.7389 50.6299 32.229 52.577 32.8708C54.5212 33.513 54.6327 34.187 55.7385 34.3003C56.0908 34.3363 56.1335 33.7066 56.1157 33.3353C54.0698 33.2279 50.4045 31.121 50.6033 26.1992ZM19.3226 4.91583C19.3664 4.99134 19.4021 5.05888 19.427 5.11811C19.4519 5.17734 19.467 5.2279 19.4729 5.26774C19.4789 5.30861 19.4775 5.34013 19.4666 5.36437C19.4551 5.38896 19.4361 5.40697 19.4109 5.42152C19.3727 5.44334 19.2984 5.45477 19.188 5.45512C19.0755 5.45477 18.9349 5.46689 18.7639 5.49114C18.5925 5.51504 18.3969 5.55868 18.1789 5.62033C17.9595 5.68268 17.7222 5.78589 17.4677 5.93102C17.1954 6.08619 16.9752 6.26907 16.807 6.48C16.636 6.69059 16.5192 6.91849 16.4547 7.16302C16.3909 7.4079 16.3797 7.66525 16.4253 7.9316C16.4691 8.19899 16.569 8.46465 16.7243 8.73065C16.8943 9.02125 17.0874 9.254 17.3016 9.42788C17.5164 9.60071 17.7442 9.7202 17.985 9.78186C18.2262 9.84316 18.4754 9.85182 18.7358 9.80506C18.9949 9.75969 19.2549 9.66132 19.5136 9.51377C19.6408 9.44138 19.7586 9.35618 19.868 9.25989C19.9763 9.16222 20.0692 9.05727 20.1459 8.94332L19.4551 7.76119L18.3941 8.36663C18.3426 8.39607 18.2837 8.39018 18.2209 8.34688C18.1568 8.30463 18.0846 8.21146 18.0019 8.07014C17.9588 7.99602 17.9255 7.93264 17.9041 7.8786C17.8823 7.82457 17.8694 7.77851 17.8666 7.74041C17.8631 7.70127 17.8669 7.67044 17.8788 7.64377C17.8911 7.6171 17.9093 7.59771 17.936 7.58247L19.828 6.50286C19.8739 6.47688 19.9191 6.46026 19.9647 6.45368C20.0089 6.44813 20.0541 6.45125 20.0968 6.46441C20.1428 6.47792 20.1834 6.50113 20.222 6.53299C20.2591 6.56555 20.2938 6.6085 20.3243 6.6608L21.5101 8.69047C21.5556 8.76841 21.5809 8.84564 21.5858 8.9215C21.5896 8.99839 21.5549 9.08082 21.4813 9.16776C21.4074 9.25677 21.311 9.35826 21.1953 9.47429C21.0776 9.58963 20.9524 9.70254 20.8185 9.81476C20.686 9.92456 20.5469 10.0309 20.4042 10.1303C20.2598 10.2307 20.1102 10.3229 19.957 10.4105C19.5101 10.6651 19.0758 10.8358 18.6531 10.9214C18.2311 11.0059 17.8336 11.0066 17.4589 10.9248C17.0835 10.8428 16.7379 10.6796 16.4214 10.4351C16.1046 10.1892 15.828 9.86464 15.5914 9.45974C15.3478 9.04272 15.1978 8.62813 15.1431 8.21665C15.0864 7.80621 15.1179 7.41136 15.2364 7.03383C15.3549 6.65595 15.5567 6.3037 15.8438 5.97535C16.1323 5.64562 16.4975 5.3564 16.9377 5.10529C17.182 4.96606 17.4106 4.85522 17.6275 4.77106C17.8438 4.68897 18.039 4.62558 18.2139 4.58367C18.3867 4.54246 18.5385 4.51856 18.665 4.51267C18.7933 4.50574 18.8872 4.51163 18.9468 4.52583C19.0078 4.53934 19.0664 4.57571 19.1238 4.63286C19.1785 4.68966 19.2455 4.78422 19.3226 4.91583ZM26.4216 2.71933L26.4167 2.72037L26.0949 5.36137L27.8825 4.95336L26.4216 2.71933ZM30.3 6.26503C30.3627 6.36236 30.4076 6.44133 30.4321 6.50125C30.4549 6.56117 30.4542 6.61104 30.4247 6.64949C30.3974 6.68932 30.3385 6.72188 30.2484 6.75028C30.1591 6.77868 30.0353 6.81159 29.8755 6.8483C29.7108 6.88571 29.5804 6.91238 29.4861 6.929C29.3939 6.94528 29.3203 6.95256 29.2688 6.95152C29.2176 6.94909 29.1783 6.9387 29.1528 6.91896C29.1289 6.89887 29.1054 6.87255 29.0827 6.83618L28.3897 5.78151L26.0213 6.32149L25.8843 7.5341C25.8801 7.57808 25.8717 7.61653 25.8569 7.65047C25.8433 7.68199 25.8138 7.71282 25.7707 7.73983C25.728 7.76546 25.6628 7.79352 25.5793 7.8188C25.4942 7.84443 25.382 7.87353 25.2422 7.90505C25.0925 7.93934 24.9747 7.9615 24.8878 7.97155C24.8012 7.98194 24.7378 7.97397 24.6982 7.94626C24.6572 7.92063 24.634 7.87491 24.6295 7.81084C24.6249 7.74641 24.6305 7.6574 24.6449 7.54587L25.3999 2.0138C25.4087 1.95907 25.4206 1.91335 25.4395 1.8756C25.4591 1.83889 25.4952 1.80529 25.5478 1.77585C25.6007 1.74779 25.6764 1.71939 25.777 1.69168C25.8755 1.66432 26.0094 1.63072 26.1745 1.59332C26.3655 1.54933 26.5194 1.51781 26.6351 1.49599C26.7493 1.47486 26.8398 1.46516 26.9067 1.46585C26.9737 1.46828 27.0259 1.48179 27.0602 1.5088C27.096 1.53409 27.1296 1.57288 27.1633 1.62587L30.3 6.26503ZM36.4542 1.80643C36.437 1.61316 36.3757 1.45453 36.2674 1.32984C36.1605 1.2048 35.9943 1.12375 35.77 1.08773C35.7023 1.07803 35.6266 1.07214 35.5411 1.07145C35.4552 1.06903 35.3375 1.07422 35.1878 1.08704L34.6011 1.13622L34.7441 2.79979L35.4107 2.74368C35.5982 2.72809 35.7577 2.69415 35.8941 2.64081C36.0297 2.58886 36.1422 2.52166 36.2274 2.43992C36.3147 2.35783 36.3767 2.26362 36.4142 2.15764C36.4528 2.04992 36.4651 1.93354 36.4542 1.80643ZM38.4871 5.64411C38.4903 5.67805 38.4857 5.7068 38.4738 5.73104C38.4626 5.7539 38.4335 5.77503 38.3837 5.79477C38.3354 5.81451 38.2635 5.83149 38.1671 5.84569C38.0725 5.85989 37.9417 5.87409 37.7749 5.88794C37.6357 5.89972 37.5229 5.90595 37.4409 5.90665C37.3571 5.90769 37.2898 5.90076 37.2407 5.88933C37.1913 5.87617 37.1555 5.85746 37.1328 5.83426C37.1107 5.80967 37.0907 5.78023 37.0742 5.74594L36.3848 4.4838C36.3024 4.3411 36.2229 4.21537 36.1468 4.10661C36.0686 3.99751 35.9873 3.9078 35.899 3.83714C35.811 3.76648 35.7122 3.7173 35.6035 3.68613C35.4931 3.65634 35.3687 3.64664 35.2295 3.65807L34.8212 3.69236L35.0136 5.92847C35.0164 5.95791 35.0066 5.987 34.9884 6.01159C34.9684 6.03826 34.9344 6.06147 34.8864 6.07948C34.8366 6.09922 34.7714 6.11723 34.6887 6.13351C34.6077 6.14979 34.5008 6.1633 34.3718 6.17404C34.2456 6.18477 34.1398 6.18893 34.0546 6.18685C33.9684 6.18443 33.8997 6.17785 33.8485 6.16676C33.7977 6.15672 33.7609 6.13975 33.7395 6.11654C33.7174 6.09507 33.7052 6.06805 33.702 6.03861L33.2436 0.711235C33.2323 0.578232 33.2614 0.479173 33.3312 0.414057C33.4009 0.348942 33.4903 0.311881 33.6011 0.302183L35.2695 0.162253C35.4391 0.148052 35.579 0.139047 35.6883 0.136276C35.7998 0.133159 35.8986 0.132813 35.9894 0.132813C36.2509 0.144935 36.4892 0.182688 36.7051 0.247112C36.9197 0.311881 37.104 0.402281 37.2596 0.521776C37.4156 0.640924 37.5397 0.788127 37.6319 0.960961C37.7241 1.13414 37.7791 1.33815 37.7991 1.57021C37.8159 1.76694 37.8043 1.94878 37.7637 2.114C37.723 2.28129 37.6536 2.43196 37.5597 2.56773C37.4633 2.70385 37.3417 2.82473 37.1934 2.9321C37.0469 3.03809 36.8744 3.12883 36.6806 3.20261C36.7809 3.23794 36.8755 3.28158 36.9659 3.33457C37.0543 3.38791 37.1405 3.45407 37.2228 3.53442C37.3052 3.61478 37.3848 3.70622 37.4608 3.81047C37.5365 3.91646 37.6119 4.03457 37.6869 4.16861L38.329 5.27904C38.3897 5.38884 38.4296 5.47127 38.451 5.52253C38.4727 5.57379 38.4847 5.61466 38.4871 5.64411ZM45.968 3.14177C45.9876 2.86329 45.9701 2.60352 45.9157 2.3583C45.8611 2.11481 45.7598 1.89937 45.6139 1.71338C45.4695 1.52738 45.2768 1.37567 45.0353 1.26103C44.7955 1.14465 44.4734 1.07261 44.07 1.0449L43.4075 0.999181L43.1247 4.99411L43.8078 5.04156C44.1671 5.06615 44.4734 5.04364 44.7244 4.97713C44.9771 4.9089 45.1905 4.7946 45.3679 4.63562C45.5449 4.47664 45.6826 4.27125 45.7825 4.02291C45.8821 3.77422 45.9438 3.4812 45.968 3.14177ZM47.3279 3.19545C47.2897 3.73301 47.179 4.18951 46.9967 4.56115C46.8151 4.93315 46.5712 5.23067 46.2645 5.45269C45.9585 5.67401 45.595 5.82814 45.173 5.91265C44.7496 5.99682 44.2536 6.02037 43.6813 5.98089L42.1404 5.87421C42.0297 5.86659 41.9396 5.83091 41.8691 5.76684C41.7983 5.70276 41.7678 5.60405 41.777 5.47104L42.1394 0.350794C42.1488 0.217791 42.193 0.124274 42.2722 0.0705877C42.3514 0.0169018 42.4454 -0.00595802 42.5558 0.00131555L44.2109 0.115615C44.7868 0.155446 45.2712 0.251388 45.6623 0.401362C46.0538 0.551336 46.3798 0.756036 46.6371 1.01511C46.894 1.27419 47.0826 1.58626 47.2003 1.95063C47.3185 2.31362 47.3609 2.72925 47.3279 3.19545ZM54.2455 7.28273C54.2255 7.36898 54.2055 7.43929 54.1838 7.4947C54.1621 7.55047 54.1389 7.5948 54.1141 7.62701C54.0895 7.65819 54.0636 7.67931 54.0348 7.6904C54.0075 7.70183 53.9777 7.70287 53.949 7.69629L50.7825 6.97378C50.6745 6.94919 50.5911 6.9 50.5315 6.82588C50.4719 6.75176 50.4572 6.64958 50.4874 6.51935L51.6559 1.51825C51.6861 1.38836 51.745 1.30281 51.8316 1.26194C51.9178 1.22107 52.0149 1.21276 52.1228 1.2377L55.2693 1.95536C55.2991 1.96228 55.3226 1.97545 55.3426 1.99623C55.3622 2.01493 55.3745 2.04506 55.3825 2.08663C55.3906 2.12646 55.391 2.17772 55.3857 2.23729C55.3808 2.29652 55.3689 2.3703 55.3475 2.45966C55.3289 2.5414 55.3072 2.61102 55.2855 2.66678C55.2637 2.72255 55.2409 2.76653 55.2161 2.79771C55.1912 2.83026 55.1666 2.85174 55.14 2.86144C55.113 2.87287 55.086 2.87494 55.0562 2.86802L52.8063 2.35471L52.4786 3.75574L54.3829 4.19008C54.413 4.197 54.4372 4.21224 54.459 4.23303C54.4779 4.25485 54.4923 4.28533 54.501 4.32239C54.5094 4.36083 54.5108 4.40898 54.5056 4.4682C54.5003 4.52778 54.4877 4.59809 54.4677 4.68122C54.4477 4.76746 54.4278 4.83777 54.4064 4.89215C54.385 4.94584 54.3626 4.98878 54.3384 5.01822C54.3135 5.0494 54.2879 5.06914 54.2613 5.07745C54.2329 5.0868 54.2045 5.08819 54.1743 5.08126L52.2704 4.64693L51.8922 6.26443L54.1624 6.78259C54.1908 6.78882 54.2171 6.80441 54.2364 6.82623C54.2581 6.84736 54.2718 6.87749 54.2798 6.91767C54.2886 6.95611 54.2893 7.00564 54.2841 7.06522C54.2791 7.12444 54.2651 7.19787 54.2455 7.28273ZM62.3535 11.0256C62.3202 11.0873 62.2789 11.1358 62.2295 11.1732C62.1797 11.2085 62.1264 11.2317 62.0707 11.2425C62.0121 11.2542 61.9529 11.2528 61.8905 11.2393C61.8288 11.2248 61.7685 11.2037 61.7125 11.1742L61.2186 10.9145C61.1162 10.8608 61.0307 10.8036 60.9673 10.7454C60.9017 10.6883 60.8506 10.6173 60.8138 10.5348C60.777 10.4524 60.7514 10.3527 60.7384 10.2366C60.7244 10.122 60.7174 9.97754 60.7174 9.8054L60.6017 6.62789C60.5989 6.43981 60.5978 6.24066 60.6017 6.02834C60.6073 5.81636 60.6185 5.61305 60.6354 5.41978L60.6262 5.41493C60.5351 5.61305 60.4408 5.81013 60.3437 6.00513C60.2449 6.19944 60.1415 6.3986 60.0325 6.60156L58.5688 9.32188C58.5547 9.34786 58.5341 9.36864 58.5064 9.38042C58.4794 9.39427 58.4408 9.39739 58.3939 9.39185C58.3451 9.38527 58.2866 9.36864 58.2141 9.34128C58.1419 9.31392 58.0518 9.27201 57.9466 9.21659C57.8443 9.1629 57.7605 9.11337 57.6974 9.06973C57.6336 9.02574 57.587 8.9873 57.5562 8.95162C57.5264 8.91664 57.5102 8.88547 57.5071 8.85533C57.5032 8.82693 57.5085 8.79819 57.5225 8.77221L60.037 4.09945C60.1043 3.97476 60.1962 3.90134 60.3111 3.8809C60.425 3.86012 60.5414 3.88055 60.6592 3.94255L61.2831 4.27021C61.3945 4.32874 61.4836 4.38624 61.5505 4.44443C61.6178 4.50262 61.6704 4.56704 61.7093 4.63839C61.7482 4.70974 61.7752 4.79633 61.7896 4.89539C61.8046 4.99272 61.8116 5.1091 61.8113 5.24279L61.9028 7.72828C61.9052 7.87721 61.9073 8.02441 61.9108 8.16885C61.9147 8.31293 61.9165 8.45667 61.9157 8.59868C61.9147 8.74069 61.9129 8.88062 61.9108 9.01674C61.9094 9.15286 61.9059 9.28829 61.901 9.42302L61.9056 9.42544C61.9978 9.23252 62.0966 9.03475 62.2018 8.82797C62.3066 8.62293 62.41 8.42723 62.5088 8.24366L63.8211 5.80424C63.8355 5.77826 63.8576 5.75852 63.8859 5.74536C63.915 5.73428 63.9557 5.73081 64.0051 5.73566C64.0538 5.7419 64.1148 5.75818 64.186 5.78831C64.2571 5.81706 64.3465 5.85897 64.4524 5.91404C64.5533 5.96738 64.6339 6.01518 64.6977 6.05743C64.7629 6.09865 64.8088 6.13883 64.8369 6.17277C64.8656 6.20914 64.881 6.2417 64.8835 6.2694C64.8873 6.29919 64.881 6.32794 64.867 6.35392L62.3535 11.0256ZM14.5623 65.9291C14.5591 66.0195 14.5391 66.0985 14.5023 66.166C14.4655 66.2332 14.4143 66.2893 14.3488 66.3336C14.2836 66.378 14.2058 66.4102 14.1161 66.4299C14.0263 66.45 13.9275 66.458 13.8192 66.4545C13.7596 66.4528 13.7049 66.4465 13.6555 66.4368C13.6061 66.4268 13.5633 66.415 13.5269 66.4015C13.4904 66.3877 13.4613 66.3745 13.4392 66.3617C13.4172 66.3489 13.4017 66.3385 13.3926 66.3305C13.3835 66.3222 13.3772 66.3142 13.3726 66.3056C13.3681 66.2973 13.3649 66.2855 13.3628 66.2699C13.3604 66.2547 13.359 66.2356 13.3583 66.2128C13.3576 66.1895 13.3579 66.1608 13.359 66.1269C13.3604 66.0881 13.3649 66.0624 13.3723 66.0493C13.3797 66.0358 13.3905 66.0295 13.4045 66.0302C13.4158 66.0306 13.4312 66.0368 13.4515 66.0489C13.4715 66.061 13.4971 66.0752 13.5283 66.0908C13.5595 66.1068 13.5973 66.1213 13.6415 66.1348C13.686 66.1483 13.7382 66.1559 13.7989 66.158C13.849 66.1598 13.8949 66.1553 13.9363 66.1449C13.9776 66.1341 14.013 66.1185 14.0421 66.0971C14.0715 66.0759 14.0943 66.0503 14.1115 66.0198C14.1283 65.9893 14.1371 65.9558 14.1385 65.918C14.1402 65.8768 14.1339 65.8387 14.121 65.8054C14.1077 65.7718 14.0859 65.7427 14.0558 65.7188C14.026 65.6946 13.9878 65.6759 13.9412 65.6617C13.8942 65.6478 13.8381 65.6395 13.7719 65.6374L13.5805 65.6309C13.5665 65.6302 13.5553 65.6281 13.5472 65.6243C13.5388 65.6201 13.5321 65.6135 13.5276 65.6032C13.5227 65.5928 13.5199 65.5782 13.5192 65.5602C13.5185 65.5425 13.5185 65.519 13.5195 65.4892C13.5206 65.4625 13.522 65.4407 13.5248 65.4237C13.5269 65.4068 13.5311 65.3933 13.5367 65.3832C13.5419 65.3732 13.5486 65.3666 13.5567 65.3628C13.5647 65.3586 13.5745 65.3569 13.5858 65.3572L13.7799 65.3638C13.8367 65.3659 13.8872 65.3617 13.9313 65.3524C13.9755 65.343 14.0127 65.3278 14.0428 65.307C14.073 65.2862 14.0961 65.2606 14.1126 65.2308C14.129 65.2003 14.1378 65.165 14.1392 65.1259C14.1402 65.0926 14.136 65.0618 14.1262 65.0337C14.1164 65.006 14.1006 64.9821 14.0789 64.9624C14.0575 64.943 14.0295 64.9274 13.9955 64.9156C13.9611 64.9039 13.9205 64.8973 13.8728 64.8955C13.8171 64.8938 13.7666 64.898 13.7214 64.9084C13.6762 64.9191 13.6369 64.9305 13.6033 64.9433C13.57 64.9558 13.5416 64.9683 13.5181 64.9797C13.495 64.9915 13.4774 64.9974 13.4666 64.997C13.4599 64.9967 13.4543 64.9946 13.4498 64.9904C13.4452 64.9866 13.4413 64.9801 13.4378 64.9704C13.4347 64.9607 13.4326 64.9475 13.4319 64.9305C13.4308 64.9139 13.4308 64.8924 13.4319 64.8658C13.4326 64.847 13.4336 64.8304 13.435 64.8145C13.4364 64.7989 13.4389 64.7847 13.442 64.7715C13.4452 64.7591 13.4494 64.748 13.4543 64.7386C13.4592 64.7289 13.4669 64.7199 13.4771 64.7109C13.4873 64.7019 13.5076 64.6905 13.5384 64.677C13.5689 64.6631 13.6068 64.651 13.6509 64.6399C13.6951 64.6288 13.7449 64.6202 13.7999 64.6139C13.8553 64.6074 13.9135 64.6049 13.9752 64.6074C14.0719 64.6105 14.1564 64.6236 14.2279 64.6462C14.2994 64.669 14.3586 64.7002 14.4056 64.74C14.4529 64.7799 14.4876 64.828 14.5097 64.8845C14.5321 64.9409 14.5423 65.005 14.5398 65.077C14.5377 65.1342 14.5279 65.1858 14.5107 65.2322C14.4932 65.2786 14.469 65.3195 14.4385 65.3545C14.408 65.3891 14.3719 65.4179 14.3306 65.4411C14.2892 65.4643 14.2436 65.4805 14.1939 65.4895L14.1935 65.4923C14.2503 65.5006 14.3018 65.518 14.3481 65.5439C14.3944 65.5703 14.4336 65.6025 14.4655 65.6413C14.4978 65.68 14.5226 65.7244 14.5395 65.7732C14.5566 65.8221 14.564 65.874 14.5623 65.9291ZM16.5198 65.0016L16.0974 64.9926C16.0775 65.1322 16.0582 65.2548 16.0396 65.3608C16.0207 65.4668 16.0025 65.5596 15.9846 65.6396C15.9663 65.7192 15.9481 65.7878 15.9302 65.8457C15.912 65.9035 15.8938 65.953 15.8759 65.9949C15.8573 66.0369 15.8388 66.0729 15.8195 66.103C15.8002 66.1328 15.7806 66.1602 15.7603 66.1848L16.4928 66.2007L16.5198 65.0016ZM17.0655 66.9305C17.0652 66.9398 17.0624 66.9474 17.0578 66.954C17.0529 66.9602 17.0445 66.9654 17.0322 66.9689C17.02 66.9731 17.0035 66.9758 16.9832 66.9779C16.9625 66.9793 16.9358 66.98 16.9032 66.9793C16.8717 66.9786 16.8458 66.9772 16.8258 66.9741C16.8058 66.9717 16.7897 66.9679 16.7771 66.9637C16.7648 66.9592 16.756 66.954 16.7511 66.9471C16.7459 66.9409 16.7434 66.9325 16.7438 66.9235L16.7532 66.502L15.5496 66.476L15.5401 66.8972C15.5401 66.9062 15.537 66.9142 15.5321 66.9204C15.5268 66.927 15.5177 66.9318 15.5051 66.936C15.4921 66.9395 15.4756 66.9426 15.4553 66.944C15.4346 66.946 15.4087 66.9467 15.3768 66.946C15.3453 66.9454 15.319 66.9436 15.2986 66.9412C15.278 66.9381 15.2618 66.9346 15.2492 66.9301C15.2366 66.926 15.2282 66.9201 15.224 66.9138C15.2191 66.9069 15.217 66.8993 15.2173 66.8899L15.2317 66.2478C15.2303 66.2211 15.2355 66.2021 15.2475 66.1906C15.2594 66.1792 15.2773 66.174 15.3004 66.1747L15.3842 66.1764C15.4073 66.1456 15.4294 66.1141 15.4501 66.0812C15.4707 66.0483 15.4911 66.0098 15.5107 65.9641C15.5303 65.9191 15.55 65.8654 15.5696 65.8027C15.5892 65.74 15.6088 65.6631 15.6285 65.5724C15.6481 65.4816 15.6688 65.3739 15.6895 65.2496C15.7105 65.1252 15.7329 64.9791 15.756 64.8107C15.7627 64.7695 15.7739 64.7394 15.7904 64.721C15.8065 64.7027 15.8311 64.6937 15.8637 64.6944L16.7876 64.7145C16.8202 64.7152 16.8458 64.7252 16.864 64.7446C16.8819 64.764 16.891 64.7927 16.8899 64.8315L16.8591 66.209L17.013 66.2121C17.0382 66.2128 17.0557 66.2197 17.0655 66.2332C17.0753 66.2468 17.0802 66.2655 17.0795 66.2897L17.0655 66.9305ZM18.9671 66.3741C18.9671 66.4008 18.9657 66.4229 18.9636 66.4409C18.9611 66.459 18.9576 66.4738 18.9531 66.4846C18.9485 66.4957 18.9425 66.5036 18.9355 66.5088C18.9285 66.5137 18.9208 66.5165 18.9124 66.5165H18.0035C17.9727 66.5165 17.9468 66.5074 17.9261 66.4894C17.905 66.4714 17.8945 66.4423 17.8945 66.4018V64.8432C17.8945 64.8026 17.905 64.7732 17.9261 64.7555C17.9468 64.7375 17.9727 64.7285 18.0035 64.7285H18.9068C18.9152 64.7285 18.9226 64.7309 18.9292 64.7351C18.9355 64.7399 18.9411 64.7479 18.9461 64.7593C18.9506 64.7708 18.9541 64.7857 18.9566 64.8037C18.9587 64.8217 18.9601 64.8445 18.9601 64.8719C18.9601 64.8982 18.9587 64.9197 18.9566 64.9377C18.9541 64.9557 18.9506 64.9703 18.9461 64.9814C18.9411 64.9924 18.9355 65.0004 18.9292 65.0056C18.9226 65.0105 18.9152 65.0129 18.9068 65.0129H18.2608V65.45H18.8076C18.816 65.45 18.8237 65.4521 18.8307 65.4573C18.8377 65.4621 18.8434 65.4701 18.8479 65.4808C18.8528 65.4912 18.8563 65.5058 18.8588 65.5234C18.8609 65.5414 18.8619 65.5636 18.8619 65.5892C18.8619 65.6159 18.8609 65.6381 18.8588 65.6554C18.8563 65.6731 18.8528 65.6873 18.8479 65.6976C18.8434 65.7084 18.8377 65.7157 18.8307 65.7205C18.8237 65.7247 18.816 65.7274 18.8076 65.7274H18.2608V66.2317H18.9124C18.9208 66.2317 18.9285 66.2342 18.9355 66.2394C18.9425 66.2446 18.9482 66.2522 18.9531 66.2633C18.9576 66.2743 18.9611 66.2889 18.9636 66.3072C18.9657 66.3249 18.9671 66.3474 18.9671 66.3741ZM21.0518 66.1823C21.0529 66.2056 21.0529 66.2253 21.0522 66.2412C21.0515 66.2575 21.0497 66.2714 21.0476 66.2831C21.0452 66.2946 21.042 66.3046 21.0375 66.3129C21.0333 66.3212 21.0263 66.3313 21.0164 66.3427C21.0066 66.3534 20.9873 66.3677 20.959 66.3857C20.9302 66.4033 20.8948 66.4203 20.8531 66.4376C20.8114 66.4542 20.7634 66.4688 20.7094 66.4813C20.6554 66.4934 20.5965 66.501 20.5334 66.5034C20.4094 66.5086 20.2968 66.4944 20.1955 66.4605C20.0946 66.4269 20.0073 66.3742 19.9344 66.3015C19.8615 66.2295 19.804 66.1384 19.762 66.0272C19.7203 65.9167 19.6961 65.7865 19.6898 65.6375C19.6838 65.4855 19.6985 65.35 19.7346 65.2305C19.7707 65.111 19.824 65.0096 19.8941 64.9264C19.9646 64.8433 20.0501 64.7796 20.1514 64.7339C20.2527 64.6881 20.3652 64.6629 20.4889 64.658C20.5394 64.6559 20.5881 64.658 20.6347 64.6642C20.6817 64.6708 20.7252 64.6798 20.7655 64.6916C20.8054 64.7034 20.8419 64.7176 20.8741 64.7335C20.9064 64.7498 20.9295 64.7636 20.9425 64.7758C20.9554 64.7875 20.9646 64.7976 20.9695 64.8056C20.9744 64.8139 20.9789 64.8243 20.9821 64.8371C20.9856 64.8499 20.988 64.8648 20.9901 64.8824C20.9923 64.8998 20.994 64.9212 20.9951 64.9472C20.9961 64.9746 20.9961 64.9981 20.9951 65.0179C20.994 65.0373 20.9916 65.0529 20.9873 65.0653C20.9831 65.0771 20.9779 65.0861 20.9716 65.0917C20.9653 65.0979 20.9579 65.101 20.9495 65.1013C20.9355 65.1017 20.9176 65.0944 20.8955 65.0792C20.8734 65.0639 20.845 65.047 20.81 65.0286C20.7753 65.0103 20.7339 64.994 20.6863 64.9798C20.6386 64.9656 20.5822 64.9597 20.517 64.9625C20.4455 64.9652 20.382 64.9825 20.3266 65.0137C20.2716 65.0449 20.2253 65.0885 20.1878 65.1436C20.1507 65.199 20.1233 65.2655 20.1062 65.3424C20.0886 65.42 20.082 65.5062 20.0858 65.6022C20.09 65.7071 20.1048 65.7975 20.13 65.8734C20.1549 65.9496 20.1889 66.0116 20.2316 66.0594C20.2741 66.1072 20.3245 66.1425 20.3827 66.165C20.4413 66.1865 20.5061 66.1965 20.578 66.1934C20.6431 66.1907 20.6992 66.181 20.7458 66.1636C20.7928 66.1467 20.8328 66.1283 20.8661 66.1086C20.8994 66.0888 20.9264 66.0708 20.9477 66.0556C20.9691 66.0396 20.9859 66.0317 20.9979 66.031C21.0073 66.031 21.015 66.0327 21.0206 66.0358C21.0263 66.0393 21.0312 66.0466 21.0354 66.0573C21.0396 66.0684 21.0431 66.0836 21.0459 66.1034C21.0483 66.1231 21.0504 66.1494 21.0518 66.1823ZM22.8875 65.6746C22.8804 65.6299 22.8678 65.5914 22.8496 65.5585C22.8314 65.526 22.8068 65.4993 22.7763 65.4789C22.7458 65.4588 22.7083 65.4449 22.6645 65.4383C22.6204 65.4314 22.5569 65.4342 22.4742 65.447L22.2639 65.4789L22.3519 66.04L22.5688 66.0071C22.6554 65.9939 22.7189 65.9756 22.7592 65.952C22.7991 65.9288 22.8293 65.9018 22.8489 65.8713C22.8689 65.8408 22.8815 65.8083 22.8868 65.7736C22.8924 65.7393 22.8927 65.7064 22.8875 65.6746ZM23.2558 65.5876C23.2692 65.6711 23.2685 65.7501 23.2541 65.8238C23.2397 65.898 23.2082 65.9655 23.1598 66.0265C23.1114 66.0874 23.0441 66.1408 22.9576 66.1855C22.871 66.2301 22.749 66.2648 22.5902 66.289L22.144 66.3572C22.1283 66.3597 22.1135 66.3597 22.0995 66.3576C22.0855 66.3559 22.0725 66.3507 22.061 66.3427C22.0494 66.3347 22.0396 66.324 22.0315 66.3108C22.0231 66.2977 22.0175 66.281 22.0143 66.261L21.7627 64.6535C21.7613 64.6448 21.763 64.6365 21.7679 64.6286C21.7732 64.6206 21.7823 64.6137 21.7956 64.6067C21.8093 64.6002 21.8275 64.5936 21.851 64.588C21.8738 64.5821 21.9025 64.5766 21.9365 64.5714C21.9726 64.5659 22.0021 64.5624 22.0256 64.561C22.049 64.56 22.068 64.5607 22.0823 64.5631C22.0971 64.5659 22.1076 64.5697 22.1142 64.5756C22.1209 64.5814 22.1247 64.5891 22.1262 64.5984L22.2204 65.2004L22.4707 65.1623C22.606 65.1415 22.7157 65.1367 22.7995 65.1478C22.8832 65.1585 22.9565 65.1824 23.0192 65.2198C23.0823 65.2565 23.1339 65.306 23.1749 65.3673C23.2155 65.4293 23.2429 65.5028 23.2558 65.5876ZM58.2875 66.3917C58.2861 66.4017 58.2819 66.4097 58.2752 66.4156C58.2685 66.4215 58.2577 66.426 58.243 66.428C58.2279 66.4301 58.2083 66.4308 58.1841 66.4294C58.1595 66.4277 58.1287 66.4242 58.0908 66.418C58.0512 66.4121 58.0193 66.4059 57.9952 66.4C57.9713 66.3934 57.9524 66.3868 57.9384 66.3799C57.9247 66.3723 57.9145 66.3636 57.9082 66.3539C57.9026 66.3442 57.8988 66.3328 57.897 66.3196L57.8164 65.904C57.8055 65.8434 57.7919 65.7921 57.7757 65.7499C57.7603 65.708 57.7407 65.6726 57.7179 65.6442C57.6951 65.6162 57.6671 65.594 57.6348 65.5791C57.6026 65.5635 57.5651 65.5528 57.5223 65.5462L57.4414 65.5334L57.3278 66.24C57.3264 66.2504 57.3222 66.2583 57.3155 66.2639C57.3092 66.2701 57.2984 66.2743 57.284 66.2774C57.2693 66.2801 57.2503 66.2808 57.2268 66.2795C57.2037 66.2781 57.1736 66.2746 57.1378 66.2691C57.1031 66.2635 57.0737 66.258 57.0505 66.2521C57.0278 66.2462 57.0095 66.2393 56.9966 66.2323C56.9836 66.2254 56.9745 66.2175 56.9696 66.2102C56.965 66.2026 56.9633 66.1932 56.965 66.1832L57.2321 64.5144C57.2339 64.5043 57.2381 64.4964 57.2451 64.4905C57.2524 64.4846 57.263 64.4804 57.2773 64.478C57.292 64.4756 57.3113 64.4749 57.3352 64.4763C57.359 64.478 57.3881 64.4811 57.4235 64.4867C57.4592 64.4926 57.4883 64.4981 57.5111 64.5043C57.5339 64.5099 57.5518 64.5161 57.5647 64.5231C57.5777 64.5296 57.5865 64.5369 57.591 64.5442C57.5956 64.5525 57.597 64.5608 57.5952 64.5708L57.489 65.2345L57.5707 65.2473C57.6121 65.2535 57.6492 65.2539 57.6822 65.2476C57.7151 65.2418 57.7466 65.2289 57.7754 65.2092C57.8045 65.1895 57.8325 65.1624 57.8595 65.1278C57.8861 65.0932 57.9135 65.0499 57.9419 64.9972L58.1185 64.664C58.1248 64.6522 58.1325 64.6419 58.1399 64.6346C58.148 64.627 58.1595 64.6218 58.1743 64.6186C58.1897 64.6159 58.2093 64.6155 58.2331 64.6169C58.2566 64.6183 58.2885 64.6221 58.3281 64.6283C58.3642 64.6339 58.3933 64.6394 58.4165 64.6457C58.4396 64.6516 58.4575 64.6578 58.4701 64.6637C58.4831 64.6703 58.4911 64.6768 58.4946 64.6845C58.4981 64.6917 58.4992 64.7007 58.4974 64.7104C58.4957 64.7226 58.4911 64.7368 58.4845 64.7534C58.4771 64.77 58.4662 64.7918 58.4515 64.8182L58.2815 65.1136C58.25 65.1683 58.2198 65.2144 58.1911 65.2518C58.1627 65.2895 58.134 65.3204 58.1049 65.3453C58.0758 65.3703 58.0463 65.3896 58.0162 65.4035C57.986 65.4174 57.9534 65.4274 57.9187 65.4343L57.9184 65.4357C57.9527 65.4572 57.9832 65.4797 58.0102 65.5039C58.0369 65.5282 58.061 65.5576 58.0821 65.5916C58.1038 65.6259 58.1231 65.666 58.1399 65.7138C58.1571 65.7609 58.1725 65.8188 58.1872 65.8863L58.2752 66.2749C58.2836 66.3144 58.2885 66.3414 58.2889 66.3563C58.2896 66.3705 58.2889 66.3823 58.2875 66.3917ZM60.4447 65.7404C60.4524 65.6469 60.4517 65.561 60.443 65.4834C60.4342 65.4051 60.4142 65.3376 60.383 65.2804C60.3515 65.2229 60.3073 65.1765 60.2502 65.1422C60.193 65.1076 60.1198 65.0871 60.0308 65.0802C59.9407 65.0729 59.8639 65.0837 59.8008 65.1128C59.7377 65.1412 59.6852 65.1824 59.6438 65.2354C59.6021 65.2884 59.5709 65.3521 59.5492 65.4255C59.5278 65.499 59.5138 65.5776 59.5071 65.6614C59.4994 65.7587 59.4997 65.8467 59.5085 65.9257C59.5169 66.0043 59.5369 66.0725 59.5674 66.1304C59.5982 66.1886 59.6428 66.2339 59.6995 66.2675C59.757 66.3011 59.8303 66.3212 59.9207 66.3285C60.0108 66.3354 60.0872 66.3247 60.1506 66.2966C60.2137 66.2682 60.266 66.227 60.3077 66.1733C60.3494 66.1189 60.3809 66.0549 60.4023 65.9801C60.4237 65.9056 60.4377 65.8259 60.4447 65.7404ZM60.831 65.7515C60.8191 65.899 60.79 66.0299 60.7437 66.1435C60.6971 66.2571 60.6336 66.352 60.5534 66.4272C60.4738 66.5027 60.3781 66.5578 60.2663 66.5921C60.1545 66.6264 60.0276 66.6378 59.8857 66.6264C59.7451 66.6156 59.6242 66.5879 59.5225 66.5432C59.4209 66.4989 59.3382 66.4369 59.2744 66.3569C59.2109 66.2769 59.1661 66.1782 59.1405 66.0608C59.1149 65.9433 59.1082 65.8062 59.1212 65.6489C59.1328 65.5048 59.1619 65.3767 59.2081 65.2645C59.2544 65.1516 59.3178 65.058 59.3974 64.9832C59.4773 64.9081 59.5734 64.8533 59.6848 64.8187C59.7966 64.7837 59.9242 64.7723 60.0672 64.7834C60.2036 64.7941 60.3227 64.8215 60.4244 64.8655C60.5264 64.9098 60.6091 64.9714 60.6732 65.0515C60.7377 65.1311 60.783 65.2295 60.8096 65.3455C60.8366 65.4619 60.8432 65.597 60.831 65.7515ZM63.1097 65.7951C63.1104 65.7369 63.1051 65.6839 63.0925 65.6365C63.0803 65.589 63.0596 65.5471 63.0305 65.5114C63.0014 65.4761 62.9625 65.447 62.9138 65.4238C62.8654 65.4009 62.8048 65.3846 62.7326 65.3753L62.7178 66.1941C62.7886 66.1872 62.8486 66.1726 62.898 66.1498C62.9474 66.1272 62.9877 66.0981 63.0186 66.0628C63.0498 66.0275 63.0722 65.9873 63.0866 65.9409C63.1009 65.8952 63.1083 65.8463 63.1097 65.7951ZM62.3799 65.3691C62.3081 65.3753 62.2475 65.3898 62.198 65.4127C62.1486 65.4359 62.109 65.4647 62.0785 65.4989C62.048 65.5336 62.0256 65.5727 62.0116 65.6177C61.9968 65.6621 61.9895 65.7088 61.9884 65.7587C61.9874 65.8197 61.9933 65.8744 62.0056 65.9229C62.0186 65.9714 62.0393 66.0136 62.0687 66.0497C62.0978 66.0857 62.1363 66.1155 62.1851 66.139C62.2334 66.1622 62.2934 66.1785 62.3652 66.1882L62.3799 65.3691ZM63.4802 65.7861C63.4784 65.8865 63.4606 65.9769 63.4273 66.0583C63.3933 66.1394 63.3445 66.209 63.2807 66.2668C63.2166 66.3254 63.1374 66.3718 63.0431 66.4064C62.9492 66.441 62.8405 66.4625 62.7182 66.4691L62.7143 66.6766C62.7143 66.6859 62.7112 66.6939 62.7049 66.7008C62.6993 66.7074 62.6891 66.7126 62.6758 66.7164C62.6621 66.7206 62.6432 66.7233 62.6193 66.7247C62.5955 66.7261 62.5668 66.7268 62.5321 66.7261C62.4967 66.7254 62.4676 66.724 62.4444 66.7216C62.422 66.7195 62.4034 66.7157 62.3894 66.7119C62.3761 66.7074 62.3656 66.7019 62.36 66.6953C62.3537 66.689 62.3509 66.6804 62.3512 66.67L62.3547 66.4632C62.2317 66.4552 62.1237 66.4358 62.0305 66.4043C61.9376 66.3725 61.8601 66.3281 61.7988 66.271C61.7371 66.2138 61.6916 66.1432 61.6607 66.0597C61.6299 65.9762 61.6155 65.8792 61.6179 65.7674C61.6197 65.6725 61.6372 65.5855 61.6705 65.5066C61.7042 65.4272 61.7529 65.3587 61.817 65.3005C61.8812 65.2419 61.96 65.1952 62.0536 65.1595C62.1476 65.1238 62.2562 65.102 62.3792 65.0941L62.3827 64.898C62.3831 64.8887 62.3863 64.8807 62.3922 64.8745C62.3989 64.8682 62.4087 64.8634 62.4227 64.8599C62.4367 64.8564 62.4557 64.8537 62.4788 64.8519C62.5023 64.8499 62.5314 64.8492 62.5657 64.8499C62.6001 64.8506 62.6292 64.8523 62.653 64.8547C62.6768 64.8575 62.6951 64.861 62.7087 64.8651C62.722 64.8686 62.7319 64.8738 62.7378 64.8803C62.7438 64.8869 62.7466 64.8949 62.7462 64.9039L62.7431 65.1006C62.8657 65.1089 62.9737 65.1294 63.0662 65.1623C63.1588 65.1945 63.2359 65.2388 63.2979 65.2953C63.36 65.3517 63.4062 65.4207 63.4371 65.5031C63.4676 65.5848 63.4819 65.6794 63.4802 65.7861ZM65.3933 66.556C65.3944 66.583 65.3933 66.6048 65.3916 66.6232C65.3898 66.6412 65.3863 66.6557 65.3821 66.6668C65.3776 66.6779 65.372 66.6858 65.3649 66.6914C65.3583 66.6966 65.3506 66.6994 65.3422 66.6994L64.4333 66.7191C64.4028 66.7198 64.3769 66.7115 64.3555 66.6938C64.3338 66.6761 64.3225 66.6474 64.3218 66.6069L64.2871 65.0486C64.2864 65.0081 64.2966 64.9786 64.3169 64.9603C64.3373 64.9416 64.3632 64.9322 64.3937 64.9315L65.297 64.9121C65.3054 64.9118 65.3127 64.9139 65.3194 64.9184C65.326 64.9232 65.3317 64.9308 65.3366 64.9423C65.3418 64.9537 65.3457 64.9683 65.3481 64.9863C65.3509 65.0043 65.3527 65.0268 65.3534 65.0545C65.3537 65.0805 65.3534 65.1023 65.3513 65.1203C65.3492 65.1383 65.3464 65.1525 65.3418 65.1636C65.3369 65.1754 65.3317 65.1833 65.3253 65.1885C65.319 65.1937 65.3117 65.1965 65.3029 65.1965L64.6576 65.2107L64.6671 65.6471L65.2139 65.6353C65.2223 65.635 65.2297 65.6374 65.237 65.6423C65.244 65.6475 65.25 65.6547 65.2549 65.6655C65.2598 65.6759 65.2633 65.6901 65.2661 65.7081C65.2693 65.7257 65.271 65.7479 65.2714 65.7732C65.2721 65.8002 65.271 65.8224 65.2693 65.84C65.2675 65.8574 65.264 65.8716 65.2598 65.8823C65.2552 65.8927 65.2496 65.901 65.2426 65.9055C65.236 65.9104 65.2279 65.9128 65.2198 65.9128L64.6731 65.9249L64.6843 66.4292L65.3359 66.415C65.3443 66.4146 65.352 66.4171 65.3593 66.4219C65.3664 66.4271 65.372 66.4347 65.3769 66.4458C65.3821 66.4566 65.3856 66.4711 65.3884 66.4888C65.3912 66.5068 65.393 66.5293 65.3933 66.556ZM30.3804 60.549C30.3698 60.485 30.3495 60.4344 30.3201 60.3963C30.2906 60.3585 30.2573 60.3326 30.2209 60.318C30.1844 60.3038 30.1473 60.2965 30.1098 60.2976C30.0723 60.2979 30.0341 60.3014 29.9948 60.3076L29.8346 60.3333L29.9359 60.9532L30.1049 60.9266C30.1648 60.9169 30.2135 60.9009 30.2517 60.8784C30.2892 60.8559 30.319 60.8282 30.3397 60.7953C30.3611 60.7624 30.3748 60.725 30.3814 60.6831C30.3884 60.6408 30.3877 60.5961 30.3804 60.549ZM30.7691 60.4597C30.7855 60.5622 30.7841 60.6557 30.7652 60.7399C30.7452 60.8241 30.7091 60.8985 30.6559 60.9622C30.6029 61.0263 30.5339 61.08 30.4484 61.1223C30.3628 61.1649 30.2591 61.1957 30.1371 61.2154L29.9829 61.24L30.0779 61.8233C30.0796 61.833 30.0779 61.842 30.073 61.8503C30.0681 61.8586 30.0589 61.8666 30.0453 61.8735C30.032 61.8805 30.0134 61.8874 29.9899 61.8936C29.9668 61.9005 29.9366 61.9068 29.8991 61.913C29.863 61.9186 29.8325 61.9217 29.8076 61.9231C29.7827 61.9241 29.7631 61.9234 29.748 61.921C29.733 61.9186 29.7221 61.914 29.7151 61.9071C29.7081 61.9009 29.7039 61.8929 29.7021 61.8832L29.4336 60.2394C29.4263 60.1954 29.4326 60.1604 29.4522 60.1341C29.4722 60.1085 29.5013 60.0925 29.5395 60.0863L29.9752 60.0167C30.019 60.0098 30.061 60.0049 30.101 60.0018C30.141 59.9987 30.1897 59.9983 30.2465 60.0001C30.3036 60.0021 30.3628 60.0132 30.4245 60.0333C30.4859 60.0537 30.5405 60.0828 30.5875 60.1213C30.6348 60.1597 30.6741 60.2072 30.7046 60.2633C30.7351 60.3198 30.7568 60.3852 30.7691 60.4597ZM33.0573 60.5338C33.0457 60.4372 33.0275 60.3503 33.0026 60.2727C32.9777 60.1958 32.9437 60.131 32.8999 60.0791C32.8561 60.0268 32.8021 59.989 32.7366 59.9655C32.6717 59.9419 32.5932 59.9357 32.5014 59.9464C32.4082 59.9571 32.3328 59.9835 32.2746 60.0254C32.2164 60.0673 32.1716 60.1196 32.1404 60.1816C32.1088 60.2439 32.0899 60.3146 32.0832 60.3936C32.0766 60.4725 32.0787 60.5553 32.0892 60.6412C32.1011 60.742 32.1193 60.8314 32.1446 60.9093C32.1695 60.9876 32.2035 61.053 32.2469 61.1057C32.29 61.158 32.344 61.1957 32.4089 61.2182C32.4741 61.2411 32.5529 61.247 32.6458 61.2363C32.7387 61.2252 32.8144 61.1992 32.8726 61.1576C32.9308 61.1164 32.9756 61.0638 33.0068 61.0007C33.0384 60.9377 33.0569 60.866 33.0636 60.7856C33.0699 60.706 33.0678 60.6218 33.0573 60.5338ZM33.4516 60.4673C33.4698 60.6197 33.467 60.7586 33.4432 60.8833C33.4194 61.008 33.3745 61.1168 33.3086 61.2096C33.2431 61.3024 33.1572 61.3772 33.0506 61.434C32.9444 61.4912 32.8179 61.5282 32.6714 61.5456C32.5266 61.5625 32.398 61.5587 32.2858 61.5341C32.1733 61.5092 32.0766 61.4628 31.9956 61.3942C31.9146 61.326 31.8491 61.2349 31.7986 61.1202C31.7489 61.0063 31.7138 60.8681 31.6945 60.7063C31.6767 60.5574 31.6798 60.4216 31.7036 60.2983C31.7278 60.175 31.7727 60.0673 31.8386 59.9748C31.9041 59.8827 31.9904 59.8079 32.0966 59.75C32.2028 59.6925 32.3296 59.6551 32.4776 59.6378C32.6185 59.6215 32.745 59.6253 32.8572 59.6496C32.9697 59.6735 33.0664 59.7202 33.1477 59.7885C33.2294 59.8567 33.2956 59.9471 33.3465 60.0597C33.3976 60.1722 33.4323 60.308 33.4516 60.4673ZM36.6148 61.1183C36.6155 61.1286 36.613 61.1377 36.6078 61.1449C36.6029 61.1529 36.5927 61.1595 36.5783 61.1654C36.5636 61.1713 36.544 61.1761 36.5184 61.1803C36.4932 61.1844 36.4606 61.1879 36.4213 61.1906C36.381 61.1934 36.3477 61.1945 36.3214 61.1941C36.2951 61.1938 36.2741 61.1913 36.259 61.1872C36.2436 61.1827 36.232 61.1768 36.2243 61.1681C36.2166 61.1595 36.2096 61.1487 36.204 61.1359L36.0393 60.7272C36.0165 60.6694 35.993 60.6216 35.9688 60.5838C35.9439 60.5457 35.9173 60.5156 35.8878 60.4927C35.8588 60.4702 35.8265 60.4546 35.7915 60.4474C35.7568 60.4394 35.7175 60.437 35.673 60.4408L35.5994 60.4456L35.653 61.1848C35.6537 61.1955 35.6516 61.2045 35.6463 61.2121C35.6407 61.2194 35.6316 61.2263 35.618 61.2326C35.6043 61.2388 35.5854 61.244 35.5615 61.2481C35.538 61.2523 35.5075 61.2554 35.4707 61.2582C35.4343 61.2606 35.4038 61.2613 35.3796 61.2606C35.3554 61.2606 35.3365 61.2578 35.3218 61.2537C35.3074 61.2492 35.2976 61.244 35.2916 61.2371C35.286 61.2305 35.2829 61.2218 35.2818 61.2111L35.2282 60.4723L35.1546 60.4771C35.1076 60.4806 35.0663 60.4896 35.0319 60.5038C34.9969 60.5184 34.9671 60.5391 34.9418 60.5662C34.9166 60.5932 34.8956 60.6275 34.878 60.6676C34.8605 60.7082 34.8454 60.7567 34.8321 60.8128L34.7294 61.2405C34.7256 61.254 34.7203 61.2658 34.714 61.2752C34.7073 61.2849 34.6968 61.2928 34.6814 61.2987C34.6663 61.3053 34.6464 61.3101 34.6211 61.3146C34.5959 61.3188 34.5626 61.3223 34.5223 61.3254C34.482 61.3282 34.449 61.3292 34.4238 61.3285C34.3985 61.3282 34.3782 61.3261 34.3631 61.3219C34.3481 61.3185 34.3372 61.3133 34.3309 61.3067C34.3242 61.2998 34.3211 61.2914 34.3204 61.2807C34.32 61.2759 34.3197 61.2707 34.3197 61.2637C34.3197 61.2571 34.3207 61.2488 34.3225 61.2398C34.3242 61.2308 34.3263 61.2197 34.3295 61.2069C34.3327 61.1941 34.3365 61.1792 34.3421 61.1616L34.4452 60.784C34.4644 60.7137 34.4844 60.6545 34.5051 60.6056C34.5254 60.5568 34.5482 60.5156 34.5727 60.482C34.5976 60.4484 34.625 60.42 34.6551 60.3975C34.6856 60.3746 34.72 60.3542 34.7582 60.3362V60.3344C34.7235 60.3265 34.6916 60.3147 34.6618 60.2984C34.6323 60.2825 34.6039 60.26 34.5773 60.2319C34.5507 60.2039 34.524 60.1682 34.4984 60.1252C34.4725 60.0819 34.4462 60.0296 34.4192 59.9673L34.2843 59.6438C34.2713 59.614 34.2622 59.5908 34.2569 59.5735C34.2524 59.5558 34.2492 59.5413 34.2482 59.5292C34.2475 59.5184 34.2496 59.5094 34.2541 59.5021C34.259 59.4945 34.2682 59.4879 34.2818 59.4827C34.2955 59.4776 34.3144 59.473 34.339 59.4689C34.3631 59.4644 34.3947 59.4613 34.4332 59.4585C34.4736 59.4557 34.5065 59.4547 34.5317 59.455C34.557 59.4557 34.577 59.4582 34.5917 59.4623C34.6064 59.4665 34.6176 59.473 34.6243 59.4814C34.6309 59.49 34.6369 59.5011 34.6421 59.5139L34.789 59.8966C34.809 59.9496 34.83 59.994 34.8514 60.0296C34.8728 60.0657 34.897 60.0941 34.9236 60.1149C34.9502 60.136 34.9804 60.1509 35.0137 60.1581C35.0473 60.1654 35.0866 60.1678 35.1322 60.1647L35.2054 60.1595L35.1553 59.4661C35.1542 59.4557 35.1563 59.4464 35.1612 59.4391C35.1658 59.4318 35.1753 59.4249 35.1889 59.4194C35.2026 59.4135 35.2212 59.4086 35.245 59.4045C35.2689 59.4003 35.2993 59.3972 35.3358 59.3944C35.3723 59.392 35.4027 59.391 35.4273 59.3917C35.4511 59.392 35.4704 59.3944 35.4848 59.3986C35.4991 59.4017 35.5093 59.4072 35.5156 59.4138C35.5219 59.4207 35.5254 59.4294 35.5265 59.4398L35.5766 60.1332L35.6506 60.128C35.6937 60.1252 35.7315 60.1166 35.7641 60.1034C35.7964 60.0903 35.8244 60.0709 35.8482 60.0449C35.8717 60.0196 35.8921 59.9877 35.9085 59.9496C35.9253 59.9122 35.9394 59.8658 35.9509 59.8128L36.0414 59.4149C36.0442 59.401 36.0484 59.3896 36.054 59.3802C36.0596 59.3705 36.0694 59.3629 36.0834 59.3567C36.0974 59.3504 36.1167 59.3452 36.142 59.3407C36.1668 59.3369 36.1994 59.3335 36.2398 59.3303C36.2783 59.3276 36.3095 59.3269 36.3337 59.3272C36.3579 59.3279 36.3775 59.33 36.3922 59.3331C36.4069 59.3366 36.4175 59.3414 36.4234 59.3484C36.429 59.3549 36.4322 59.3636 36.4332 59.374C36.4339 59.3868 36.4329 59.4017 36.4301 59.4201C36.4269 59.4384 36.4217 59.463 36.414 59.4931L36.3263 59.8263C36.3095 59.8887 36.292 59.942 36.2738 59.987C36.2552 60.0317 36.2345 60.0698 36.2121 60.101C36.19 60.1325 36.1647 60.1588 36.1374 60.1803C36.1101 60.2018 36.0789 60.2205 36.0442 60.2364V60.2378C36.0862 60.252 36.1234 60.269 36.1567 60.288C36.1903 60.3067 36.2215 60.3317 36.2506 60.3625C36.2801 60.3926 36.3077 60.4304 36.3347 60.4761C36.361 60.5215 36.3894 60.5779 36.4192 60.6444L36.5745 61.0036C36.5825 61.0202 36.5889 61.0344 36.5934 61.0466C36.5983 61.0583 36.6025 61.0691 36.6053 61.0781C36.6085 61.0867 36.6109 61.0944 36.612 61.1013C36.6134 61.1079 36.6144 61.1134 36.6148 61.1183ZM38.6143 59.5562L38.1772 59.5672C38.1635 59.7127 38.1499 59.8405 38.1355 59.9514C38.1218 60.0619 38.1071 60.1588 38.0924 60.242C38.078 60.3254 38.0626 60.3978 38.0468 60.4581C38.031 60.5184 38.0146 60.571 37.9977 60.6153C37.9813 60.6593 37.9637 60.6978 37.9452 60.7296C37.9269 60.7615 37.9077 60.7906 37.888 60.8169L38.6465 60.7975L38.6143 59.5562ZM39.2753 61.5242C39.2753 61.5339 39.2732 61.5422 39.2687 61.5491C39.2638 61.5557 39.255 61.5612 39.2431 61.5661C39.2305 61.5706 39.2136 61.5744 39.1923 61.5772C39.1712 61.5806 39.1439 61.582 39.1099 61.5831C39.0773 61.5838 39.0507 61.5831 39.0296 61.5817C39.0086 61.5796 38.9918 61.5768 38.9788 61.5727C38.9655 61.5689 38.9564 61.5637 38.9508 61.5571C38.9452 61.5505 38.9424 61.5425 38.9424 61.5328L38.9311 61.0964L37.6847 61.1283L37.696 61.5644C37.6963 61.5737 37.6938 61.5824 37.6889 61.589C37.6837 61.5955 37.6746 61.6018 37.662 61.6063C37.649 61.6108 37.6318 61.6146 37.6104 61.6177C37.5894 61.6201 37.5624 61.6222 37.5298 61.6232C37.4969 61.6239 37.4699 61.6236 37.4485 61.6215C37.4271 61.6198 37.4099 61.617 37.397 61.6129C37.384 61.6087 37.3745 61.6038 37.3696 61.5969C37.3647 61.5903 37.3623 61.5827 37.3619 61.573L37.3444 60.908C37.3419 60.8803 37.3465 60.8606 37.3581 60.8481C37.37 60.836 37.3879 60.8297 37.412 60.829L37.499 60.8266C37.521 60.7937 37.5421 60.7598 37.5621 60.7248C37.582 60.6901 37.601 60.6489 37.6192 60.6015C37.6371 60.5533 37.6546 60.4969 37.6718 60.4307C37.6889 60.3653 37.7054 60.2849 37.7212 60.19C37.737 60.0951 37.7527 59.9832 37.7682 59.853C37.7836 59.7235 37.7994 59.5711 37.8148 59.3965C37.8197 59.3532 37.8302 59.3217 37.8456 59.3019C37.8621 59.2818 37.8866 59.2711 37.9203 59.2704L38.8768 59.2462C38.9108 59.2451 38.9374 59.2545 38.9574 59.2735C38.9771 59.2922 38.9876 59.322 38.9886 59.3622L39.0258 60.7882L39.1846 60.7837C39.2108 60.7833 39.2294 60.7899 39.2403 60.8034C39.2515 60.8169 39.2571 60.836 39.2578 60.8609L39.2753 61.5242ZM40.86 59.5997H40.8586L40.5824 60.3825L41.1134 60.3901L40.86 59.5997ZM41.6998 60.9696C41.711 61.0039 41.718 61.0312 41.7209 61.0513C41.723 61.0711 41.7191 61.0863 41.7086 61.096C41.6974 61.1061 41.6788 61.1119 41.6515 61.114C41.6245 61.1161 41.5873 61.1168 41.5396 61.1161C41.4909 61.1154 41.4524 61.114 41.425 61.1123C41.3973 61.1102 41.3767 61.1071 41.3623 61.1029C41.3476 61.0981 41.3374 61.0922 41.3321 61.0842C41.3262 61.0766 41.3216 61.0666 41.3181 61.0541L41.1975 60.6804L40.4937 60.6703L40.3697 61.0306C40.3661 61.0441 40.3605 61.0548 40.3546 61.0641C40.3479 61.0728 40.3378 61.0801 40.3234 61.0849C40.3097 61.0901 40.2894 61.0932 40.2641 61.0946C40.2386 61.096 40.2049 61.0967 40.1632 61.096C40.119 61.0957 40.0843 61.0936 40.0595 61.0905C40.0342 61.0874 40.017 61.0801 40.0072 61.0693C39.9978 61.0579 39.9946 61.0423 39.9978 61.0222C40.0009 61.0021 40.0086 60.9755 40.0209 60.9426L40.6224 59.3088C40.6283 59.2922 40.6353 59.2794 40.6434 59.2697C40.6511 59.2596 40.6634 59.2527 40.6805 59.2475C40.6974 59.2423 40.7209 59.2392 40.751 59.2381C40.7804 59.2371 40.8204 59.2371 40.8695 59.2378C40.9266 59.2388 40.9718 59.2402 41.0058 59.2419C41.0395 59.2437 41.0654 59.2475 41.0843 59.253C41.1033 59.2586 41.1166 59.2669 41.1246 59.2773C41.1327 59.288 41.1394 59.3022 41.145 59.3206L41.6998 60.9696ZM43.7059 61.0521C43.7045 61.0802 43.7021 61.1031 43.6993 61.1214C43.6958 61.1398 43.6909 61.1547 43.6859 61.1657C43.6803 61.1772 43.674 61.1851 43.6663 61.19C43.659 61.1948 43.6509 61.1973 43.6421 61.1966L42.7024 61.1498C42.6705 61.1484 42.6442 61.138 42.6235 61.118C42.6029 61.0986 42.5934 61.0677 42.5955 61.0255L42.6775 59.4138C42.68 59.3723 42.6922 59.3422 42.715 59.3252C42.7375 59.3075 42.7648 59.2995 42.7963 59.3009L43.7308 59.3477C43.7392 59.348 43.7469 59.3508 43.7532 59.3557C43.7599 59.3609 43.7652 59.3695 43.7694 59.382C43.7739 59.3938 43.7764 59.4093 43.7781 59.428C43.7795 59.4464 43.7795 59.4703 43.7781 59.4987C43.7764 59.5257 43.7746 59.5479 43.7711 59.5662C43.7676 59.585 43.7631 59.5998 43.7578 59.6109C43.7522 59.6224 43.7462 59.6303 43.7392 59.6355C43.7322 59.64 43.7245 59.6421 43.7157 59.6421L43.0477 59.6089L43.0249 60.0602L43.5903 60.0882C43.5987 60.0889 43.6064 60.0917 43.6137 60.0976C43.6204 60.1031 43.626 60.1114 43.6302 60.1225C43.6344 60.1339 43.6372 60.1488 43.6386 60.1672C43.6404 60.1862 43.6407 60.2088 43.639 60.2351C43.6376 60.2631 43.6355 60.2856 43.632 60.304C43.6288 60.3217 43.6243 60.3362 43.619 60.3466C43.6137 60.3577 43.6071 60.3653 43.5997 60.3695C43.5924 60.374 43.5839 60.3757 43.5752 60.3757L43.0102 60.3473L42.9835 60.8686L43.6572 60.9025C43.666 60.9029 43.6737 60.906 43.6807 60.9115C43.6877 60.9171 43.693 60.9261 43.6975 60.9375C43.7017 60.9493 43.7045 60.9642 43.7059 60.9829C43.7077 61.0016 43.7077 61.0248 43.7059 61.0521ZM46.0409 59.6752C46.0384 59.7029 46.0353 59.7265 46.0314 59.7455C46.0269 59.7649 46.022 59.7802 46.0163 59.7919C46.0104 59.8037 46.0037 59.8117 45.9964 59.8165C45.9883 59.8217 45.9802 59.8238 45.9715 59.8235L45.5039 59.7843L45.3777 61.2716C45.3767 61.281 45.3728 61.2889 45.3658 61.2962C45.3588 61.3031 45.3479 61.3083 45.3332 61.3121C45.3185 61.3156 45.2985 61.3177 45.274 61.3187C45.2487 61.3197 45.2186 61.3184 45.1818 61.3152C45.1453 61.3121 45.1148 61.308 45.091 61.3035C45.0665 61.2983 45.0472 61.2931 45.0332 61.2868C45.0192 61.2813 45.0093 61.274 45.0037 61.2661C44.9981 61.2581 44.9957 61.2487 44.9964 61.2394L45.1233 59.7528L44.656 59.714C44.6462 59.713 44.6385 59.7092 44.6322 59.7033C44.6259 59.6967 44.6206 59.6877 44.6171 59.6752C44.6133 59.6628 44.6108 59.6472 44.6101 59.6274C44.6094 59.608 44.6101 59.5841 44.6126 59.5568C44.615 59.5284 44.6182 59.5041 44.6224 59.484C44.6266 59.4643 44.6319 59.4487 44.6371 59.4373C44.6434 59.4258 44.6497 59.4179 44.6567 59.413C44.6637 59.4085 44.6722 59.4065 44.682 59.4075L45.9974 59.5169C46.0065 59.5173 46.0139 59.5207 46.0209 59.5266C46.0276 59.5322 46.0332 59.5415 46.0367 59.5537C46.0402 59.5658 46.0426 59.5821 46.0433 59.6021C46.044 59.6226 46.0433 59.6468 46.0409 59.6752ZM47.9964 61.3194C47.9933 61.3433 47.9901 61.3634 47.987 61.3797C47.9835 61.3963 47.9796 61.4102 47.9754 61.4216C47.9712 61.4334 47.9659 61.4427 47.96 61.4507C47.9544 61.4587 47.9452 61.4677 47.9337 61.477C47.9218 61.4867 47.8997 61.4985 47.8674 61.5117C47.8352 61.5252 47.7966 61.5373 47.7507 61.548C47.7052 61.5581 47.654 61.5657 47.5965 61.5695C47.5394 61.573 47.478 61.5712 47.4128 61.5636C47.2856 61.5484 47.1727 61.5155 47.0746 61.4646C46.9768 61.4136 46.8965 61.3454 46.8342 61.2595C46.7714 61.1743 46.7283 61.0711 46.7038 60.9513C46.6796 60.8311 46.6764 60.6943 46.6954 60.5412C46.7139 60.385 46.7518 60.2485 46.8082 60.1325C46.8654 60.0161 46.9365 59.9212 47.022 59.8478C47.1079 59.7743 47.206 59.7224 47.3171 59.6923C47.4279 59.6621 47.5474 59.6545 47.675 59.6697C47.7265 59.676 47.776 59.6857 47.8229 59.6999C47.8695 59.7141 47.9127 59.7307 47.9519 59.7491C47.9908 59.7678 48.0259 59.7878 48.056 59.8097C48.0865 59.8315 48.1075 59.8498 48.1187 59.8637C48.1303 59.8779 48.1377 59.8897 48.1415 59.899C48.1454 59.908 48.1475 59.9191 48.1489 59.933C48.1503 59.9468 48.1503 59.9621 48.1499 59.9804C48.1489 59.9988 48.1471 60.0209 48.144 60.0476C48.1408 60.076 48.1366 60.0999 48.1324 60.12C48.1279 60.1394 48.123 60.155 48.1166 60.1668C48.1103 60.1785 48.1033 60.1869 48.096 60.1917C48.0886 60.1969 48.0805 60.1986 48.0718 60.1976C48.0578 60.1959 48.0402 60.1855 48.0203 60.1661C48.0003 60.1474 47.974 60.1255 47.9414 60.101C47.9091 60.0767 47.8692 60.0532 47.8229 60.0303C47.7767 60.0085 47.7199 59.9936 47.6526 59.9856C47.579 59.977 47.5113 59.9839 47.4496 60.0067C47.3879 60.0303 47.3336 60.0667 47.2863 60.1172C47.239 60.1678 47.2001 60.2312 47.1692 60.307C47.1387 60.3836 47.1177 60.4712 47.1058 60.5692C47.0928 60.6773 47.0925 60.7722 47.1058 60.8539C47.1188 60.9357 47.1429 61.0046 47.1783 61.0607C47.2137 61.1165 47.2597 61.1605 47.3154 61.1927C47.3715 61.2245 47.4363 61.245 47.5099 61.2536C47.5772 61.2613 47.6361 61.2606 47.6869 61.2509C47.7374 61.2408 47.7816 61.2283 47.8187 61.2135C47.8562 61.1989 47.8871 61.1854 47.9112 61.1729C47.9358 61.1601 47.954 61.1546 47.9663 61.1563C47.9761 61.1573 47.9835 61.1605 47.9891 61.1646C47.994 61.1691 47.9982 61.1771 48.0006 61.1889C48.0027 61.2006 48.0038 61.2169 48.0031 61.2377C48.0027 61.2581 48.0006 61.2855 47.9964 61.3194ZM50.0075 60.3234L49.8143 60.2933C49.7334 60.2804 49.6717 60.277 49.63 60.2825C49.5875 60.2888 49.5521 60.3012 49.5238 60.3203C49.4943 60.3397 49.4715 60.3646 49.4551 60.3951C49.4382 60.4256 49.4267 60.4609 49.4204 60.5004C49.4144 60.5392 49.4144 60.5759 49.4218 60.6102C49.4288 60.6445 49.4435 60.6756 49.4649 60.7037C49.4869 60.7318 49.5171 60.7557 49.5549 60.775C49.5928 60.7948 49.6489 60.81 49.7232 60.8218L49.9223 60.8533L50.0075 60.3234ZM50.141 61.8758C50.1399 61.8851 50.1357 61.8935 50.1287 61.8993C50.1221 61.9052 50.1112 61.9097 50.0965 61.9122C50.0821 61.9146 50.0621 61.9153 50.0376 61.9139C50.0131 61.9125 49.9826 61.9087 49.9461 61.9031C49.9093 61.8973 49.8788 61.8914 49.8553 61.8848C49.8318 61.8792 49.8133 61.8723 49.7993 61.8654C49.7852 61.8581 49.7758 61.8508 49.7712 61.8432C49.7667 61.8349 49.7653 61.8263 49.7667 61.8169L49.8767 61.1328L49.7383 61.1114C49.6811 61.1024 49.6363 61.101 49.6047 61.1076C49.5725 61.1141 49.5434 61.1276 49.516 61.1474C49.4887 61.1671 49.4635 61.1931 49.4396 61.2253C49.4158 61.2586 49.3913 61.297 49.3667 61.3427L49.1627 61.7161C49.1564 61.7265 49.1484 61.7355 49.1396 61.7421C49.1305 61.7487 49.1179 61.7535 49.1014 61.7563C49.0846 61.7591 49.0635 61.7591 49.0376 61.7573C49.0113 61.7549 48.9787 61.7507 48.9384 61.7442C48.8946 61.7376 48.8599 61.7307 48.8354 61.7241C48.8108 61.7172 48.7919 61.7099 48.7793 61.7026C48.7667 61.6953 48.7593 61.6884 48.7565 61.6811C48.7537 61.6739 48.7526 61.6662 48.754 61.659C48.7558 61.6493 48.7593 61.6382 48.7646 61.625C48.7705 61.6119 48.7807 61.5928 48.7954 61.5672L48.9924 61.2298C49.0176 61.1858 49.0425 61.1477 49.0674 61.1159C49.0923 61.0837 49.1182 61.0559 49.1463 61.032C49.1739 61.0078 49.2027 60.9884 49.2321 60.9735C49.2609 60.959 49.2924 60.9486 49.3257 60.942C49.2693 60.9167 49.2202 60.8876 49.1792 60.8544C49.1382 60.8215 49.1049 60.7837 49.08 60.7418C49.0551 60.6995 49.039 60.6531 49.0309 60.6026C49.0229 60.5513 49.0239 60.4959 49.0334 60.4353C49.0471 60.3525 49.0737 60.2797 49.1137 60.2167C49.1533 60.154 49.2058 60.1035 49.2703 60.0657C49.3352 60.0276 49.4126 60.0023 49.5017 59.9898C49.5914 59.9774 49.7123 59.9829 49.8648 60.0072L50.3184 60.0785C50.3485 60.083 50.373 60.0965 50.3916 60.118C50.4102 60.1398 50.4161 60.1717 50.4091 60.2129L50.141 61.8758ZM38.1215 29.1811L37.7097 29.5885L37.2319 29.115L37.6438 28.708L38.1215 29.1811ZM38.8471 29.8783C38.6873 29.7411 38.6456 29.6937 38.5927 29.623C38.5962 29.5725 38.5846 29.5139 38.5576 29.4426C38.5327 29.3781 38.442 29.2971 38.3484 29.2393L38.0581 29.5254L37.7676 29.8108C37.8261 29.9053 37.9092 29.9943 37.9723 30.0189C38.0462 30.0466 38.1051 30.056 38.1566 30.0546C38.2281 30.1062 38.2751 30.1471 38.4143 30.3057C38.9327 30.9008 40.9162 32.998 41.5026 33.5792C42.7655 34.8295 43.062 34.8995 43.2383 34.7772C43.26 34.7602 43.3508 34.6705 43.368 34.6473C43.4871 34.4731 43.4076 34.1742 42.1556 32.9342C41.5671 32.3537 39.4497 30.3916 38.8471 29.8783ZM37.2341 26.1381L37.041 26.329C37.2033 26.41 37.3572 26.5167 37.4932 26.6511C37.6281 26.7862 37.7357 26.9375 37.8181 27.0982L38.0112 26.9081C38.1041 26.8166 38.1041 26.6701 38.0112 26.5794L37.5664 26.1381C37.4742 26.0481 37.3263 26.0474 37.2341 26.1381ZM34.6323 28.7052L34.8257 28.5137C34.9078 28.6754 35.0161 28.8261 35.1521 28.9608C35.2877 29.0952 35.4412 29.2033 35.6028 29.2836L35.41 29.4741C35.3182 29.5649 35.1692 29.5642 35.0778 29.4741L34.6319 29.0329C34.5404 28.9428 34.5408 28.7953 34.6323 28.7052ZM35.0868 26.583C34.4033 27.2577 34.4026 28.3519 35.0854 29.0273C35.7668 29.702 36.8744 29.7024 37.5572 29.0287C38.241 28.3543 38.2417 27.2605 37.5589 26.5848C36.8775 25.9101 35.7699 25.909 35.0868 26.583ZM35.3781 26.8722C35.9 26.3579 36.7468 26.3593 37.2662 26.874C37.7874 27.389 37.7867 28.2248 37.2648 28.7395C36.7443 29.2535 35.8979 29.2531 35.3767 28.7377C34.8569 28.2227 34.8576 27.3852 35.3781 26.8722ZM41.9111 29.1811L42.3247 29.5885L42.8007 29.115L42.3882 28.708L41.9111 29.1811ZM41.1856 29.8783C41.3455 29.7411 41.3882 29.6937 41.4408 29.623C41.4377 29.5725 41.4475 29.5139 41.4741 29.4426C41.5011 29.3781 41.5898 29.2971 41.6844 29.2393L41.9739 29.5254L42.2645 29.8108C42.2081 29.9053 42.1243 29.9943 42.0595 30.0189C41.9876 30.0466 41.928 30.056 41.8768 30.0546C41.8053 30.1062 41.7577 30.1471 41.6192 30.3057C41.1008 30.9008 39.1173 32.998 38.5306 33.5792C37.2677 34.8295 36.9715 34.8995 36.7956 34.7772C36.7731 34.7602 36.6823 34.6705 36.6655 34.6473C36.546 34.4731 36.6256 34.1742 37.879 32.9342C38.4657 32.3537 40.5845 30.3916 41.1856 29.8783ZM42.7993 26.1381L42.991 26.329C42.8295 26.41 42.6773 26.5167 42.5414 26.6511C42.4068 26.7862 42.2974 26.9375 42.2164 27.0982L42.0226 26.9081C41.9304 26.8166 41.9308 26.6701 42.0226 26.5794L42.4671 26.1381C42.5585 26.0481 42.7068 26.0474 42.7993 26.1381ZM45.4005 28.7052L45.2073 28.5137C45.1264 28.6754 45.0177 28.8261 44.8828 28.9608C44.7468 29.0952 44.5929 29.2033 44.4292 29.2836L44.623 29.4741C44.7166 29.5649 44.8645 29.5642 44.956 29.4741L45.4012 29.0329C45.4937 28.9428 45.4937 28.7953 45.4005 28.7052ZM44.9471 26.583C45.631 27.2577 45.632 28.3519 44.9485 29.0273C44.2661 29.702 43.1578 29.7024 42.4747 29.0287C41.7922 28.3543 41.7915 27.2605 42.4733 26.5848C43.1564 25.9101 44.2633 25.909 44.9471 26.583ZM44.6538 26.8722C44.1336 26.3579 43.2885 26.3593 42.767 26.874C42.2465 27.389 42.2465 28.2248 42.7691 28.7395C43.2892 29.2535 44.1361 29.2531 44.6566 28.7377C45.1757 28.2227 45.1757 27.3852 44.6538 26.8722ZM34.1967 31.6352H34.4101V31.5272C34.4101 31.373 34.3744 31.2958 34.3022 31.2958C34.2615 31.2958 34.2338 31.3187 34.2188 31.3644C34.2041 31.4098 34.1967 31.4825 34.1967 31.5822V31.6352ZM34.4315 31.9965L34.6299 32.0685C34.6029 32.1745 34.5609 32.2566 34.5034 32.3138C34.4462 32.3713 34.3804 32.4 34.3064 32.4C34.1869 32.4 34.0996 32.3491 34.0439 32.2473C33.9881 32.1454 33.9604 31.9833 33.9604 31.7617C33.9604 31.539 33.9881 31.3734 34.0439 31.265C34.0996 31.1566 34.1862 31.1025 34.3043 31.1025C34.4014 31.1025 34.4802 31.1469 34.5423 31.2362C34.604 31.3252 34.6348 31.4548 34.6348 31.6238V31.8126H34.1967V31.8656C34.1967 31.9768 34.2055 32.0595 34.223 32.1136C34.2405 32.1676 34.2696 32.1946 34.311 32.1946C34.3804 32.1946 34.4207 32.1288 34.4315 31.9965ZM34.7556 32.371V31.944H34.9635C34.9673 32.1092 35.0024 32.1916 35.069 32.1916C35.1195 32.1916 35.1447 32.1552 35.1447 32.0832C35.1447 32.0208 35.1317 31.9744 35.1054 31.944C35.0791 31.9131 35.0325 31.8719 34.9656 31.82C34.886 31.7586 34.8292 31.6991 34.7956 31.6412C34.7619 31.5834 34.7451 31.5169 34.7451 31.4414C34.7451 31.3492 34.7665 31.2724 34.81 31.21C34.8534 31.148 34.9067 31.1172 34.9701 31.1172C35.0353 31.1172 35.0886 31.1522 35.1293 31.2232H35.1342V31.131H35.3417V31.537H35.1342C35.1342 31.4466 35.1272 31.3856 35.1135 31.3544C35.0998 31.3236 35.0763 31.308 35.0423 31.308C34.9936 31.308 34.9691 31.342 34.9691 31.4095C34.9691 31.4597 34.98 31.5013 35.0013 31.5328C35.0231 31.5647 35.0648 31.6028 35.1268 31.6468C35.2162 31.7095 35.2786 31.7711 35.3147 31.8314C35.3508 31.8913 35.3694 31.9675 35.3694 32.0596C35.3694 32.1538 35.3466 32.2318 35.301 32.2931C35.2558 32.3544 35.1994 32.3849 35.1317 32.3849C35.0679 32.3849 35.0136 32.3499 34.9684 32.2789H34.9635V32.371H34.7556ZM35.786 31.3364V32.0641C35.786 32.1458 35.8193 32.1867 35.8863 32.1867C35.9108 32.1867 35.941 32.1798 35.9771 32.1659V32.3592C35.9266 32.3761 35.8677 32.3848 35.799 32.3848C35.7163 32.3848 35.656 32.3595 35.6185 32.3089C35.5803 32.2584 35.5614 32.1766 35.5614 32.0641V31.3364H35.4517V31.131H35.5614V30.9284C35.6381 30.8802 35.7124 30.8265 35.786 30.7666V31.131H35.9354V31.3364H35.786ZM40.0027 26.1309V26.6442H39.314V26.5087C39.314 26.4402 39.322 26.3726 39.3374 26.3061C39.3525 26.24 39.376 26.1749 39.4061 26.1115C39.437 26.0481 39.4748 25.9871 39.5215 25.9282L39.6438 25.7693C39.6988 25.6983 39.7346 25.6352 39.75 25.5802C39.7658 25.5247 39.7738 25.4489 39.7738 25.3519C39.7738 25.1929 39.7318 25.1136 39.648 25.1136C39.5597 25.1133 39.5155 25.1884 39.5155 25.3384C39.5155 25.3491 39.5204 25.4014 39.5302 25.4963H39.3308C39.3196 25.4465 39.314 25.3952 39.314 25.3429C39.314 25.2109 39.3434 25.1088 39.4023 25.0374C39.4615 24.9657 39.5449 24.9297 39.6526 24.9297C39.7647 24.9297 39.8502 24.9678 39.9112 25.0429C39.9722 25.1181 40.0027 25.2248 40.0027 25.363C40.0027 25.4555 39.989 25.5414 39.9617 25.6203C39.9344 25.6993 39.8993 25.7644 39.8565 25.815L39.7055 25.9906C39.6687 26.0339 39.6364 26.0813 39.6087 26.1323C39.5814 26.1835 39.5593 26.2355 39.5435 26.2888C39.5271 26.3421 39.518 26.392 39.5155 26.4384H39.8054V26.1309H40.0027ZM40.4134 26.1284C40.4134 26.2507 40.4219 26.3415 40.4401 26.4003C40.4576 26.4592 40.486 26.489 40.5253 26.489C40.5659 26.489 40.5947 26.4606 40.6111 26.4041C40.628 26.348 40.636 26.2559 40.636 26.1284V25.4659C40.636 25.3377 40.6273 25.2466 40.6094 25.1933C40.5908 25.1403 40.5628 25.1136 40.5253 25.1136C40.4506 25.1133 40.4131 25.2258 40.4131 25.4503L40.4134 26.1284ZM40.8659 25.7984C40.8659 26.1191 40.8383 26.3449 40.7822 26.4758C40.7268 26.6068 40.6409 26.6722 40.5253 26.6722C40.4113 26.6722 40.3262 26.6075 40.2694 26.4776C40.2126 26.3477 40.1846 26.1212 40.1846 25.7984C40.1846 25.5133 40.2109 25.2975 40.2638 25.1503C40.3167 25.0035 40.404 24.9297 40.5253 24.9297C40.6395 24.9297 40.7247 24.9962 40.7811 25.1292C40.8379 25.2618 40.8659 25.4849 40.8659 25.7984ZM43.6446 31.3282V32.0559C43.6446 32.1373 43.6779 32.1785 43.7448 32.1785C43.7694 32.1785 43.7999 32.1713 43.8353 32.1574L43.8356 32.3507C43.7851 32.3676 43.7259 32.3763 43.6576 32.3763C43.5752 32.3763 43.5145 32.351 43.4767 32.3004C43.4392 32.2499 43.4203 32.1681 43.4203 32.0559V31.3282H43.3105V31.1232H43.4203V30.9202C43.4967 30.872 43.5713 30.8184 43.6446 30.7588V31.1232H43.7936V31.3282H43.6446ZM43.9064 32.3629V32.1575H43.9993V31.3286H43.9019V31.1236H44.224V31.233H44.2285C44.2804 31.1506 44.3445 31.1094 44.422 31.1094C44.4984 31.1094 44.5587 31.1506 44.6032 31.2334C44.6593 31.1506 44.7294 31.1094 44.8128 31.1094C44.9705 31.1094 45.0494 31.2216 45.0494 31.4453V32.1575H45.1426V32.3629H44.8254V31.455C44.8254 31.4024 44.8202 31.3657 44.8104 31.3452C44.8005 31.3245 44.7809 31.3148 44.7522 31.3148C44.7213 31.3148 44.6943 31.3269 44.6712 31.3515C44.6481 31.3764 44.6365 31.3924 44.6365 31.3993V32.1575H44.7294V32.3629H44.4125V31.455C44.4125 31.4038 44.4069 31.3674 44.3954 31.3463C44.3845 31.3252 44.3652 31.3148 44.3372 31.3148C44.2972 31.3148 44.2594 31.3425 44.224 31.3993V32.1575H44.3169V32.3629H43.9064ZM45.2105 32.3629V32.1575H45.3037V31.3286H45.2056V31.1236H45.5277V31.2226H45.5336C45.5855 31.1468 45.649 31.1094 45.7236 31.1094C45.7895 31.1094 45.8414 31.136 45.8792 31.1901C45.9171 31.2438 45.936 31.3193 45.936 31.4159V32.1575H46.0289V32.3629H45.7117V31.4502C45.7117 31.4 45.7068 31.3646 45.6963 31.3446C45.6868 31.3245 45.6682 31.3148 45.6409 31.3148C45.6108 31.3148 45.5845 31.3279 45.562 31.3546C45.5389 31.3813 45.5277 31.3975 45.5277 31.4038V32.1575H45.6209V32.3629H45.2105ZM39.2275 36.6399V36.4453H39.3295V35.2358C39.2969 35.2604 39.2633 35.2763 39.2275 35.2839V35.0789C39.3218 35.0432 39.3944 34.9923 39.4449 34.9258H39.5423V36.4453H39.6373V36.6399H39.2275ZM39.9272 36.1504H40.1347C40.1347 36.2699 40.1428 36.3555 40.1589 36.4074C40.1751 36.459 40.2073 36.485 40.2546 36.485C40.2963 36.485 40.3251 36.4642 40.3419 36.422C40.3584 36.3797 40.3668 36.2973 40.3668 36.175C40.3668 36.0029 40.3591 35.8886 40.3437 35.8328C40.3282 35.7767 40.2977 35.7487 40.2522 35.7487C40.1758 35.7487 40.1358 35.81 40.1319 35.9326C40.0636 35.8837 40.0061 35.8553 39.9602 35.8474L39.9886 34.9541H40.5469V35.3157H40.3521V35.1602H40.1565L40.1432 35.6548C40.2006 35.5949 40.2609 35.5651 40.3244 35.5651C40.4124 35.5651 40.4789 35.6101 40.5259 35.7002C40.5725 35.7899 40.5957 35.9211 40.5957 36.0933C40.5957 36.2845 40.5659 36.4279 40.5066 36.5242C40.4474 36.6204 40.3633 36.6686 40.2546 36.6686C40.1519 36.6686 40.0717 36.6236 40.0142 36.5332C39.9563 36.4428 39.9272 36.3153 39.9272 36.1504Z" fill="#F3F4F0"/>
</svg>
