<svg width="24" height="24" viewBox="0 0 24 24" fill="none" xmlns="http://www.w3.org/2000/svg">
<path d="M15.375 3H8.625C5.51888 3 3 5.51888 3 8.625V15.375C3 18.4811 5.51888 21 8.625 21H15.375C18.4811 21 21 18.4811 21 15.375V8.625C21 5.51888 18.4811 3 15.375 3ZM19.3125 15.375C19.3125 17.5463 17.5463 19.3125 15.375 19.3125H8.625C6.45375 19.3125 4.6875 17.5463 4.6875 15.375V8.625C4.6875 6.45375 6.45375 4.6875 8.625 4.6875H15.375C17.5463 4.6875 19.3125 6.45375 19.3125 8.625V15.375Z" fill="#F3F4F0"/>
<path d="M12 7.5C9.51487 7.5 7.5 9.51487 7.5 12C7.5 14.4851 9.51487 16.5 12 16.5C14.4851 16.5 16.5 14.4851 16.5 12C16.5 9.51487 14.4851 7.5 12 7.5ZM12 14.8125C10.4497 14.8125 9.1875 13.5503 9.1875 12C9.1875 10.4486 10.4497 9.1875 12 9.1875C13.5503 9.1875 14.8125 10.4486 14.8125 12C14.8125 13.5503 13.5503 14.8125 12 14.8125Z" fill="#F3F4F0"/>
<path d="M17.1383 8.36249C17.6353 8.36249 18.0383 7.95955 18.0383 7.4625C18.0383 6.96544 17.6353 6.5625 17.1383 6.5625C16.6412 6.5625 16.2383 6.96544 16.2383 7.4625C16.2383 7.95955 16.6412 8.36249 17.1383 8.36249Z" fill="#F3F4F0"/>
</svg>
