<svg width="24" height="24" viewBox="0 0 24 24" fill="none" xmlns="http://www.w3.org/2000/svg">
<path d="M6.375 9.84375C8.07275 9.84375 9.49329 8.63397 9.81995 7.03125H10.5938C11.7568 7.03125 12.7031 6.08496 12.7031 4.92188C12.7031 3.75879 11.7568 2.8125 10.5938 2.8125C9.89777 2.8125 4.36084 2.8125 3.5625 2.8125C3.17413 2.8125 2.85938 3.12726 2.85938 3.51562V6.32812C2.85938 8.26666 4.43646 9.84375 6.375 9.84375ZM11.2969 4.92188C11.2969 5.30951 10.9814 5.625 10.5938 5.625H9.89062V4.21875H10.5938C10.9814 4.21875 11.2969 4.53424 11.2969 4.92188ZM4.26562 4.21875H8.48438V6.32812C8.48438 7.49121 7.53809 8.4375 6.375 8.4375C5.21191 8.4375 4.26562 7.49121 4.26562 6.32812V4.21875Z" fill="currentColor"/>
<path d="M3.5625 12.75H12C12.3884 12.75 12.7031 12.4352 12.7031 12.0469C12.7031 11.6585 12.3884 11.3438 12 11.3438H3.5625C3.17413 11.3438 2.85938 11.6585 2.85938 12.0469C2.85938 12.4352 3.17413 12.75 3.5625 12.75Z" fill="currentColor"/>
<path d="M3.5625 15.5625H12C12.3884 15.5625 12.7031 15.2477 12.7031 14.8594C12.7031 14.471 12.3884 14.1562 12 14.1562H3.5625C3.17413 14.1562 2.85938 14.471 2.85938 14.8594C2.85938 15.2477 3.17413 15.5625 3.5625 15.5625Z" fill="currentColor"/>
<path d="M9.1875 16.9688H3.5625C3.17413 16.9688 2.85938 17.2835 2.85938 17.6719C2.85938 18.0602 3.17413 18.375 3.5625 18.375H9.1875C9.57587 18.375 9.89062 18.0602 9.89062 17.6719C9.89062 17.2835 9.57587 16.9688 9.1875 16.9688Z" fill="currentColor"/>
<path d="M23.2969 21.1875C23.6852 21.1875 24 20.8727 24 20.4844C24 17.231 21.5136 14.5435 18.3281 14.1949V13.4531C18.3281 13.0648 18.0134 12.75 17.625 12.75C17.2366 12.75 16.9219 13.0648 16.9219 13.4531V14.1956C16.4344 14.2496 15.9635 14.3593 15.5156 14.5182V0.703125C15.5156 0.314758 15.2009 0 14.8125 0H0.703125C0.314758 0 0 0.314758 0 0.703125V20.4844C0 20.8727 0.314758 21.1875 0.703125 21.1875H12.7031V22.5938H12C11.6116 22.5938 11.2969 22.9085 11.2969 23.2969C11.2969 23.6852 11.6116 24 12 24H23.2969C23.6852 24 24 23.6852 24 23.2969C24 22.9085 23.6852 22.5938 23.2969 22.5938H22.5938V21.1875H23.2969ZM22.5432 19.7812C22.1274 19.7812 13.0573 19.7812 12.7531 19.7812C13.0953 17.3992 15.1498 15.5625 17.625 15.5625C20.1238 15.5625 22.1977 17.3992 22.5432 19.7812ZM1.40625 1.40625H14.1094V15.2252C12.5986 16.2385 11.5468 17.8848 11.3362 19.7812H1.40625V1.40625ZM21.1875 22.5938H14.1094V21.1875H21.1875V22.5938Z" fill="currentColor"/>
</svg>
