<svg width="32" height="32" viewBox="0 0 32 32" fill="none" xmlns="http://www.w3.org/2000/svg">
<g clip-path="url(#clip0_1015_1136)">
<path d="M27.7891 27.3951H4.25391V17.1621H27.7891V27.3951Z" fill="#FFF35F"/>
<path d="M27.7889 27.3954V26.8837H4.76515V17.6739H27.2771V27.3951H27.7889V26.8834V27.3954H28.3006V17.1625C28.3006 17.0278 28.2462 16.896 28.1507 16.8006C28.0553 16.7055 27.9238 16.651 27.7889 16.651H4.25369C4.11873 16.651 3.98699 16.7055 3.89184 16.8006C3.79669 16.896 3.74194 17.0278 3.74194 17.1625V27.3954C3.74194 27.5301 3.7964 27.6618 3.89184 27.7573C3.98728 27.8524 4.11873 27.9069 4.25369 27.9069H27.7889C27.9235 27.9069 28.0553 27.8524 28.1507 27.7573C28.2462 27.6618 28.3006 27.5301 28.3006 27.3954H27.7889Z" fill="#54596E"/>
<path d="M4.25366 27.3953H11.9284V29.4417H4.25366V27.3953Z" fill="#EDEDED"/>
<path d="M11.9282 29.4416V28.9301H4.76515V27.9066H11.4164V29.4416H11.9282V28.9298V29.4416H12.4396V27.3952C12.4396 27.2605 12.3852 27.1285 12.29 27.0333C12.1946 26.9379 12.0628 26.8834 11.9282 26.8834H4.25369C4.11873 26.8834 3.98699 26.9379 3.89184 27.0333C3.79669 27.1285 3.74194 27.2602 3.74194 27.3952V29.4416C3.74194 29.5766 3.7964 29.7083 3.89184 29.8035C3.98728 29.8989 4.11873 29.9534 4.25369 29.9534H11.9282C12.0628 29.9534 12.1946 29.8989 12.2897 29.8035C12.3852 29.7083 12.4396 29.5766 12.4396 29.4416H11.9282Z" fill="#54596E"/>
<path d="M9.88173 31.4881H6.30036C5.17001 31.4881 4.25366 30.5718 4.25366 29.4414H11.9284C11.9284 30.5718 11.0121 31.4881 9.88173 31.4881Z" fill="#EDEDED"/>
<path d="M9.88147 31.4884V30.9767H6.3001C5.45256 30.9752 4.76661 30.2893 4.76515 29.4418H4.2534V29.9535H11.9282V29.4418H11.4164C11.415 30.2893 10.729 30.9752 9.88147 30.9767V32.0002C11.2946 31.9999 12.4393 30.8549 12.4396 29.4418C12.4396 29.3071 12.3852 29.1753 12.2897 29.0799C12.1946 28.9848 12.0628 28.9303 11.9282 28.9303H4.2534C4.11873 28.9303 3.98699 28.9848 3.89184 29.0799C3.7964 29.1753 3.74194 29.3071 3.74194 29.4418C3.74224 30.8549 4.88694 31.9996 6.3001 32.0002H9.88147V31.4884Z" fill="#54596E"/>
<path d="M20.1147 27.3953H27.7892V29.4417H20.1147V27.3953Z" fill="#EDEDED"/>
<path d="M27.789 29.4416V28.9301H20.6263V27.9066H27.2773V29.4416H27.789V28.9298V29.4416H28.3008V27.3952C28.3008 27.2605 28.2463 27.1285 28.1509 27.0333C28.0557 26.9379 27.924 26.8834 27.789 26.8834H20.1145C19.9799 26.8834 19.8478 26.9379 19.7527 27.0333C19.6575 27.1285 19.6028 27.2602 19.6028 27.3952V29.4416C19.6028 29.5766 19.6575 29.7083 19.7527 29.8035C19.8478 29.8989 19.9799 29.9534 20.1145 29.9534H27.789C27.9237 29.9534 28.0554 29.8989 28.1509 29.8035C28.2463 29.7083 28.3008 29.5766 28.3008 29.4416H27.789Z" fill="#54596E"/>
<path d="M25.7428 31.4881H22.1612C21.0311 31.4881 20.1147 30.5718 20.1147 29.4414H27.7892C27.7892 30.5718 26.8729 31.4881 25.7428 31.4881Z" fill="#EDEDED"/>
<path d="M25.7426 31.4884V30.9767H22.1609C21.3137 30.9752 20.6275 30.2893 20.626 29.4418H20.1145V29.9535H27.789V29.4418H27.2773C27.2758 30.2893 26.5898 30.9752 25.7426 30.9767V32.0002C27.1555 31.9999 28.3002 30.8549 28.3008 29.4418C28.3008 29.3071 28.246 29.1753 28.1509 29.0799C28.0554 28.9848 27.9237 28.9303 27.789 28.9303H20.1145C19.9799 28.9303 19.8478 28.9848 19.7527 29.0799C19.6575 29.1753 19.6028 29.3071 19.6028 29.4418C19.6031 30.8549 20.7481 31.9996 22.1609 32.0002H25.7426V31.4884Z" fill="#54596E"/>
<path d="M4.25366 10.5112H27.7891V17.1625H4.25366V10.5112Z" fill="#EDEDED"/>
<path d="M27.7889 10.511V9.99951H4.2534C4.11873 9.99951 3.98699 10.054 3.89184 10.1491C3.7964 10.2446 3.74194 10.3763 3.74194 10.511V17.1622C3.74194 17.2969 3.7964 17.4289 3.89184 17.5241C3.98699 17.6192 4.11873 17.674 4.2534 17.674H27.7889C27.9235 17.674 28.0553 17.6192 28.1507 17.5241C28.2459 17.4289 28.3006 17.2969 28.3006 17.1622V10.511C28.3006 10.3763 28.2459 10.2446 28.1507 10.1491C28.0553 10.054 27.9235 9.99951 27.7889 9.99951V10.511H27.2771V16.6508H4.76515V11.0227H27.7889V10.511H27.2771H27.7889Z" fill="#54596E"/>
<path d="M9.88135 12.0463H16.0212V17.1626H9.88135V12.0463Z" fill="#EDEDED"/>
<path d="M16.0217 12.046V11.5345H9.88187C9.7472 11.5345 9.61545 11.589 9.5203 11.6841C9.42486 11.7796 9.37012 11.9113 9.37012 12.046V17.1623C9.37012 17.297 9.42486 17.429 9.5203 17.5242C9.61545 17.6193 9.7472 17.6741 9.88187 17.6741H16.0217C16.1564 17.6741 16.2881 17.6193 16.3833 17.5242C16.4787 17.429 16.5332 17.297 16.5332 17.1623V12.046C16.5332 11.9113 16.4787 11.7796 16.3833 11.6841C16.2881 11.589 16.1564 11.5345 16.0217 11.5345V12.046H15.5099V16.6509H10.3936V12.5578H16.0217V12.046H15.5099H16.0217Z" fill="#54596E"/>
<path d="M16.022 12.0463H22.1615V17.1626H16.022V12.0463Z" fill="#54596E"/>
<path d="M22.1611 12.046V11.5345H16.0215C15.8868 11.5345 15.7548 11.589 15.6597 11.6841C15.5645 11.7796 15.5098 11.9113 15.5098 12.046V17.1623C15.5098 17.297 15.5645 17.429 15.6597 17.5242C15.7551 17.6193 15.8868 17.6741 16.0215 17.6741H22.1611C22.2957 17.6741 22.4275 17.6193 22.5229 17.5242C22.6181 17.429 22.6728 17.297 22.6728 17.1623V12.046C22.6728 11.9113 22.6181 11.7796 22.5229 11.6841C22.4275 11.589 22.2957 11.5345 22.1611 11.5345V12.046H21.6493V16.6509H16.533V12.5578H22.1611V12.046H21.6493H22.1611Z" fill="#54596E"/>
<path d="M13.9746 14.6045C13.9746 15.1698 13.5165 15.628 12.9514 15.628C12.3861 15.628 11.9282 15.1698 11.9282 14.6045C11.9282 14.0395 12.3861 13.5813 12.9514 13.5813C13.5165 13.5813 13.9746 14.0395 13.9746 14.6045Z" fill="#FF9999"/>
<path d="M4.2534 12.5578H27.2771C27.5599 12.5578 27.7889 12.3285 27.7889 12.046C27.7889 11.7635 27.5599 11.5345 27.2771 11.5345H4.2534C3.97088 11.5345 3.74194 11.7635 3.74194 12.046C3.74194 12.3285 3.97088 12.5578 4.2534 12.5578Z" fill="#54596E"/>
<path d="M1.18359 16.1392H7.32341V18.6973H1.18359V16.1392Z" fill="#EDEDED"/>
<path d="M7.32315 18.6971V18.1856H1.69508V16.6504H6.8114V18.6971H7.32315V18.1856V18.6971H7.8349V16.1389C7.8349 16.0042 7.78015 15.8725 7.685 15.777C7.58956 15.6819 7.45782 15.6274 7.32315 15.6274H1.18333C1.04866 15.6274 0.916917 15.6819 0.821769 15.777C0.726329 15.8725 0.671875 16.0042 0.671875 16.1389V18.6971C0.671875 18.8317 0.726329 18.9635 0.821769 19.0589C0.916917 19.1541 1.04866 19.2085 1.18333 19.2085H7.32315C7.45782 19.2085 7.58956 19.1541 7.685 19.0589C7.78015 18.9635 7.8349 18.8317 7.8349 18.6971H7.32315Z" fill="#54596E"/>
<path d="M1.18359 18.6971H7.32341V21.2553H1.18359V18.6971Z" fill="#EDEDED"/>
<path d="M7.32315 21.2556V20.7442H1.69508V19.2089H6.8114V21.2556H7.32315V20.7442V21.2556H7.8349V18.6975C7.8349 18.5628 7.78015 18.4311 7.685 18.3356C7.58956 18.2405 7.45782 18.186 7.32315 18.186H1.18333C1.04866 18.186 0.916917 18.2405 0.821769 18.3356C0.726329 18.4311 0.671875 18.5628 0.671875 18.6975V21.2556C0.671875 21.3906 0.726329 21.5223 0.821769 21.6175C0.916917 21.7129 1.04866 21.7674 1.18333 21.7674H7.32315C7.45782 21.7674 7.58956 21.7129 7.685 21.6175C7.78015 21.5223 7.8349 21.3906 7.8349 21.2556H7.32315Z" fill="#54596E"/>
<path d="M3.23047 21.2557H5.27688V23.3024H3.23047V21.2557Z" fill="#EDEDED"/>
<path d="M5.2769 23.3022V22.7904H3.74225V21.7672H4.76545V23.3022H5.2769V22.7904V23.3022H5.78865V21.2555C5.78865 21.1208 5.7342 20.9891 5.63876 20.8936C5.54361 20.7985 5.41187 20.744 5.2769 20.744H3.2305C3.09583 20.744 2.96379 20.7985 2.86864 20.8936C2.7735 20.9891 2.71875 21.1208 2.71875 21.2555V23.3022C2.71875 23.4369 2.7735 23.5686 2.86864 23.6641C2.96408 23.7592 3.09583 23.814 3.2305 23.814H5.2769C5.41187 23.814 5.54361 23.7592 5.63876 23.6641C5.7342 23.5686 5.78865 23.4369 5.78865 23.3022H5.2769Z" fill="#54596E"/>
<path d="M24.7192 16.1392H30.8591V18.6973H24.7192V16.1392Z" fill="#EDEDED"/>
<path d="M30.8588 18.6971V18.1856H25.2307V16.6504H30.347V18.6971H30.8588V18.1856V18.6971H31.3703V16.1389C31.3703 16.0042 31.3158 15.8725 31.2204 15.777C31.1252 15.6819 30.9935 15.6274 30.8588 15.6274H24.719C24.5843 15.6274 24.4526 15.6819 24.3574 15.777C24.262 15.8725 24.2075 16.0042 24.2075 16.1389V18.6971C24.2075 18.8317 24.262 18.9635 24.3574 19.0589C24.4526 19.1541 24.5843 19.2085 24.719 19.2085H30.8588C30.9935 19.2085 31.1252 19.1541 31.2204 19.0589C31.3158 18.9635 31.3703 18.8317 31.3703 18.6971H30.8588Z" fill="#54596E"/>
<path d="M24.7192 18.6971H30.8591V21.2553H24.7192V18.6971Z" fill="#EDEDED"/>
<path d="M30.8588 21.2556V20.7442H25.2307V19.2089H30.347V21.2556H30.8588V20.7442V21.2556H31.3703V18.6975C31.3703 18.5628 31.3158 18.4311 31.2204 18.3356C31.1252 18.2405 30.9935 18.186 30.8588 18.186H24.719C24.5843 18.186 24.4526 18.2405 24.3574 18.3356C24.262 18.4311 24.2075 18.5628 24.2075 18.6975V21.2556C24.2075 21.3906 24.262 21.5223 24.3574 21.6175C24.4526 21.7129 24.5843 21.7674 24.719 21.7674H30.8588C30.9935 21.7674 31.1252 21.7129 31.2204 21.6175C31.3158 21.5223 31.3703 21.3906 31.3703 21.2556H30.8588Z" fill="#54596E"/>
<path d="M12.9512 2.83679H19.0907V5.39495H12.9512V2.83679Z" fill="#54596E"/>
<path d="M19.0912 5.39473V4.88298H13.4631V3.34803H18.5797V5.39473H19.0912V4.88298V5.39473H19.603V2.83658C19.603 2.70161 19.5482 2.56987 19.4531 2.47472C19.3576 2.37928 19.2259 2.32483 19.0912 2.32483H12.9517C12.817 2.32483 12.685 2.37928 12.5898 2.47472C12.4947 2.56987 12.4399 2.70161 12.4399 2.83658V5.39473C12.4399 5.5294 12.4947 5.66114 12.5898 5.75658C12.6853 5.85173 12.817 5.90619 12.9517 5.90619H19.0912C19.2259 5.90619 19.3576 5.85173 19.4531 5.75658C19.5482 5.66114 19.603 5.5294 19.603 5.39473H19.0912Z" fill="#54596E"/>
<path d="M26.7656 21.2557H28.812V23.3024H26.7656V21.2557Z" fill="#EDEDED"/>
<path d="M28.8123 23.3022V22.7904H27.2773V21.7672H28.3008V23.3022H28.8123V22.7904V23.3022H29.324V21.2555C29.324 21.1208 29.2693 20.9891 29.1741 20.8936C29.0787 20.7985 28.947 20.744 28.8123 20.744H26.7659C26.6312 20.744 26.4992 20.7985 26.404 20.8936C26.3089 20.9891 26.2542 21.1208 26.2542 21.2555V23.3022C26.2542 23.4369 26.3089 23.5686 26.404 23.6641C26.4995 23.7592 26.6312 23.814 26.7659 23.814H28.8123C28.947 23.814 29.079 23.7592 29.1741 23.6641C29.2693 23.5686 29.324 23.4369 29.324 23.3022H28.8123Z" fill="#54596E"/>
<path d="M19.6347 6.71752L23.548 7.91814C25.0335 8.37368 26.6077 7.53872 27.0635 6.05295C27.5191 4.56689 26.6841 2.993 25.1983 2.53746L18.5948 0.511841L17.7695 3.20203C17.3137 4.6878 18.1489 6.26169 19.6347 6.71752Z" fill="#EDEDED"/>
<path d="M19.6349 6.71766L19.485 7.20658L23.398 8.40749C23.7221 8.50674 24.0509 8.55416 24.3744 8.55416C25.7981 8.55446 27.1129 7.63372 27.5529 6.20299C27.6522 5.8789 27.6999 5.55012 27.6999 5.22662C27.7002 3.80292 26.7794 2.48782 25.3487 2.04839L18.7454 0.0227613C18.4752 -0.0600906 18.1892 0.0915606 18.1063 0.361781L17.2808 3.05198C17.1815 3.37577 17.1338 3.70484 17.1338 4.02805C17.1335 5.45176 18.0542 6.76655 19.485 7.20658L19.6349 6.71766L19.785 6.22846C18.7938 5.92515 18.1573 5.01203 18.157 4.02805C18.157 3.80497 18.1895 3.57807 18.2589 3.35206L18.9343 1.15107L25.0483 3.02651C26.0393 3.32952 26.6761 4.24265 26.6764 5.22662C26.6764 5.45 26.6439 5.67689 26.5745 5.9029C26.2715 6.89391 25.3581 7.53067 24.3741 7.53096C24.151 7.53096 23.9238 7.49846 23.6981 7.42908L19.785 6.22846L19.6349 6.71766Z" fill="#54596E"/>
<path d="M12.4077 6.71752L8.49436 7.91814C7.00888 8.37368 5.43499 7.53872 4.97886 6.05295C4.52333 4.56689 5.35828 2.993 6.84406 2.53746L13.4476 0.511841L14.2729 3.20203C14.7287 4.6878 13.8938 6.26169 12.4077 6.71752Z" fill="#EDEDED"/>
<path d="M12.4073 6.71766L12.2574 6.22846L8.34401 7.42908C8.11829 7.49846 7.8914 7.53067 7.66802 7.53096C6.68434 7.53067 5.77092 6.89391 5.46762 5.9029C5.39852 5.67689 5.36573 5.45 5.36573 5.22662C5.36603 4.24265 6.00249 3.32952 6.99349 3.0268L13.1078 1.15107L13.7832 3.35206C13.8526 3.57807 13.8854 3.80497 13.8854 4.02805C13.8848 5.01203 13.2484 5.92515 12.2574 6.22846L12.4073 6.71766L12.5574 7.20658C13.9882 6.76685 14.9089 5.45176 14.9083 4.02805C14.9083 3.70484 14.8609 3.37577 14.7617 3.05198L13.9361 0.361781C13.8532 0.0915606 13.5672 -0.0600906 13.297 0.0227613L6.69371 2.04839C5.26268 2.48782 4.34194 3.80292 4.34253 5.22662C4.34253 5.55012 4.38996 5.87919 4.4895 6.20299C4.92952 7.63372 6.24432 8.55446 7.66802 8.55416C7.99123 8.55416 8.32029 8.50674 8.6438 8.40749L12.5574 7.20658L12.4073 6.71766Z" fill="#54596E"/>
<path d="M13.4629 8.46472H18.5795V10.5111H13.4629V8.46472Z" fill="#EDEDED"/>
<path d="M18.5792 8.46438V7.95264H13.4626C13.328 7.95264 13.1962 8.00709 13.1011 8.10253C13.0056 8.19768 12.9512 8.32942 12.9512 8.46438V10.5108C12.9512 10.6455 13.0056 10.7772 13.1011 10.8726C13.1962 10.9678 13.328 11.0222 13.4626 11.0222H18.5792C18.7139 11.0222 18.8457 10.9678 18.9408 10.8726C19.0362 10.7772 19.0907 10.6455 19.0907 10.5108V8.46438C19.0907 8.32942 19.0362 8.19768 18.9408 8.10253C18.8457 8.00709 18.7139 7.95264 18.5792 7.95264V8.46438H18.0675V9.99934H13.9744V8.97584H18.5792V8.46438H18.0675H18.5792Z" fill="#54596E"/>
<path d="M14.4863 4.88281H17.556V8.46447H14.4863V4.88281Z" fill="#EDEDED"/>
<path d="M17.5562 4.88316V4.3717H14.4866C14.3519 4.3717 14.2199 4.42616 14.1247 4.52131C14.0296 4.61675 13.9749 4.74849 13.9749 4.88316V8.46483C13.9749 8.5995 14.0296 8.73125 14.1247 8.82639C14.2202 8.92183 14.3519 8.97629 14.4866 8.97629H17.5562C17.6912 8.97629 17.8229 8.92183 17.9181 8.82639C18.0135 8.73125 18.068 8.5995 18.068 8.46483V4.88316C18.068 4.74849 18.0135 4.61675 17.9181 4.52131C17.8229 4.42616 17.6912 4.3717 17.5562 4.3717V4.88316H17.0448V7.95308H14.9981V5.39491H17.5562V4.88316H17.0448H17.5562Z" fill="#54596E"/>
<path d="M24.4632 4.62762C24.4632 5.61658 23.6616 6.41816 22.6727 6.41816C21.6837 6.41816 20.8818 5.61658 20.8818 4.62762C20.8818 3.63838 21.6837 2.83679 22.6727 2.83679C23.6616 2.83679 24.4632 3.63838 24.4632 4.62762Z" fill="#999999"/>
<path d="M24.463 4.6274H24.9748C24.9745 3.35564 23.9442 2.32512 22.6725 2.32483C21.4004 2.32512 20.3705 3.35564 20.3699 4.6274C20.3705 5.89887 21.4004 6.92939 22.6725 6.92968C23.9442 6.92939 24.9745 5.89887 24.9748 4.6274H23.9515C23.9501 5.33325 23.3786 5.90502 22.6725 5.90648C21.9663 5.90502 21.3945 5.33325 21.3934 4.6274C21.3945 3.92126 21.9663 3.3495 22.6725 3.34833C23.3786 3.3495 23.9501 3.92126 23.9515 4.6274H24.463Z" fill="#54596E"/>
<path d="M11.4168 4.62762C11.4168 5.61658 10.6149 6.41816 9.62598 6.41816C8.63703 6.41816 7.83545 5.61658 7.83545 4.62762C7.83545 3.63838 8.63703 2.83679 9.62598 2.83679C10.6149 2.83679 11.4168 3.63838 11.4168 4.62762Z" fill="#999999"/>
<path d="M11.4166 4.6274H11.9283C11.9278 3.35564 10.8978 2.32512 9.62577 2.32483C8.35401 2.32512 7.32378 3.35564 7.32349 4.6274C7.32378 5.89887 8.35401 6.92939 9.62577 6.92968C10.8978 6.92939 11.9278 5.89887 11.9283 4.6274H10.9048C10.9037 5.33325 10.3319 5.90502 9.62577 5.90648C8.91963 5.90502 8.34815 5.33325 8.34669 4.6274C8.34815 3.92126 8.91963 3.3495 9.62577 3.34833C10.3319 3.3495 10.9037 3.92126 10.9048 4.6274H11.4166Z" fill="#54596E"/>
<path d="M9.88138 4.1156C9.88138 4.53952 9.53768 4.88293 9.11406 4.88293C8.69014 4.88293 8.34644 4.53952 8.34644 4.1156C8.34644 3.69168 8.69014 3.34827 9.11406 3.34827C9.53768 3.34827 9.88138 3.69168 9.88138 4.1156Z" fill="white"/>
<path d="M22.6726 4.1156C22.6726 4.53952 22.3289 4.88293 21.905 4.88293C21.4814 4.88293 21.1377 4.53952 21.1377 4.1156C21.1377 3.69168 21.4814 3.34827 21.905 3.34827C22.3289 3.34827 22.6726 3.69168 22.6726 4.1156Z" fill="white"/>
<path d="M27.2776 24.8365H4.76562V26.8832H27.2776V24.8365Z" fill="#EEE361"/>
<path d="M20.1146 26.8833H11.9284C12.0631 26.8833 12.1948 26.9377 12.2902 27.0331C12.3854 27.1283 12.4398 27.26 12.4398 27.395H19.6029C19.6029 27.2603 19.6576 27.1283 19.7528 27.0331C19.8479 26.9377 19.9799 26.8833 20.1146 26.8833ZM4.76536 24.8365H4.25391V26.8833H4.76536V24.8365ZM27.7891 24.8365H27.2773V26.8833H27.7891V24.8365Z" fill="#54596E"/>
<path d="M11.9284 26.8834H4.25391V27.3952H12.4398C12.4398 27.2605 12.3854 27.1285 12.2902 27.0333C12.1948 26.9379 12.0631 26.8834 11.9284 26.8834Z" fill="#54596E"/>
<path d="M27.789 26.8834H20.1145C19.9799 26.8834 19.8478 26.9379 19.7527 27.0333C19.6575 27.1285 19.6028 27.2602 19.6028 27.3952H27.789V26.8834Z" fill="#54596E"/>
</g>
<defs>
<clipPath id="clip0_1015_1136">
<rect width="32" height="32" fill="white"/>
</clipPath>
</defs>
</svg>
